<svg width="1440" height="896" viewBox="0 0 1440 896" fill="none" xmlns="http://www.w3.org/2000/svg">
<g clip-path="url(#clip0_126_2575)">
<path d="M1222.5 411.306V402.507L1250.46 409.601V428.018L1222.5 435.18V426.381L1248.23 419.901V417.718L1222.5 411.306Z" fill="#F2F2F2"/>
<path d="M1217.05 426.381V435.18L1189.16 428.086V409.669L1217.05 402.507V411.306L1191.32 417.718V419.969L1217.05 426.381Z" fill="#F2F2F2"/>
</g>
<g clip-path="url(#clip1_126_2575)">
<path d="M1222.5 296.713V287.914L1250.46 295.008V313.425L1222.5 320.587V311.788L1248.23 305.308V303.125L1222.5 296.713Z" fill="#F2F2F2"/>
<path d="M1217.05 311.788V320.587L1189.16 313.493V295.076L1217.05 287.914V296.713L1191.32 303.125V305.376L1217.05 311.788Z" fill="#F2F2F2"/>
</g>
<g clip-path="url(#clip2_126_2575)">
<path d="M1222.5 182.121V173.322L1250.46 180.415V198.832L1222.5 205.994V197.195L1248.23 190.715V188.532L1222.5 182.121Z" fill="#F2F2F2"/>
<path d="M1217.05 197.195V205.994L1189.16 198.9V180.484L1217.05 173.322V182.121L1191.32 188.532V190.783L1217.05 197.195Z" fill="#F2F2F2"/>
</g>
<g clip-path="url(#clip3_126_2575)">
<path d="M1222.5 67.5289V58.7298L1250.46 65.8236V84.2403L1222.5 91.4023V82.6033L1248.23 76.1233V73.9406L1222.5 67.5289Z" fill="#F2F2F2"/>
<path d="M1217.05 82.6033V91.4023L1189.16 84.3085V65.8918L1217.05 58.7298V67.5289L1191.32 73.9406V76.1915L1217.05 82.6033Z" fill="#F2F2F2"/>
</g>
<g clip-path="url(#clip4_126_2575)">
<path d="M955.121 409.942V401.143L983.08 408.237V426.653L955.121 433.815V425.016L980.851 418.536V416.354L955.121 409.942Z" fill="#F2F2F2"/>
<path d="M949.664 425.016V433.815L921.772 426.722V408.305L949.664 401.143V409.942L923.933 416.354V418.605L949.664 425.016Z" fill="#F2F2F2"/>
</g>
<g clip-path="url(#clip5_126_2575)">
<path d="M955.121 295.35V286.551L983.08 293.645V312.062L955.121 319.224V310.425L980.851 303.945V301.762L955.121 295.35Z" fill="#F2F2F2"/>
<path d="M949.664 310.425V319.224L921.772 312.13V293.713L949.664 286.551V295.35L923.933 301.762V304.013L949.664 310.425Z" fill="#F2F2F2"/>
</g>
<g clip-path="url(#clip6_126_2575)">
<path d="M955.121 180.756V171.957L983.08 179.051V197.468L955.121 204.63V195.831L980.851 189.351V187.168L955.121 180.756Z" fill="#F2F2F2"/>
<path d="M949.664 195.831V204.63L921.772 197.536V179.119L949.664 171.957V180.756L923.933 187.168V189.419L949.664 195.831Z" fill="#F2F2F2"/>
</g>
<g clip-path="url(#clip7_126_2575)">
<path d="M955.121 66.1646V57.3656L983.08 64.4594V82.876L955.121 90.0381V81.239L980.851 74.7591V72.5764L955.121 66.1646Z" fill="#F2F2F2"/>
<path d="M949.664 81.239V90.0381L921.772 82.9443V64.5276L949.664 57.3656V66.1646L923.933 72.5764V74.8273L949.664 81.239Z" fill="#F2F2F2"/>
</g>
<g clip-path="url(#clip8_126_2575)">
<path d="M1417.58 370.448V379.247L1389.69 372.153V353.737L1417.58 346.575V355.374L1391.85 361.785V364.036L1417.58 370.448Z" fill="#F2F2F2"/>
</g>
<g clip-path="url(#clip9_126_2575)">
<path d="M1417.58 255.856V264.655L1389.69 257.561V239.145L1417.58 231.983V240.782L1391.85 247.194V249.444L1417.58 255.856Z" fill="#F2F2F2"/>
</g>
<g clip-path="url(#clip10_126_2575)">
<path d="M1417.58 141.263V150.062L1389.69 142.969V124.552L1417.58 117.39V126.189L1391.85 132.601V134.852L1417.58 141.263Z" fill="#F2F2F2"/>
</g>
<g clip-path="url(#clip11_126_2575)">
<path d="M1417.58 26.6707V35.4697L1389.69 28.3759V9.95923L1417.58 2.7972V11.5963L1391.85 18.008V20.2589L1417.58 26.6707Z" fill="#F2F2F2"/>
</g>
<g clip-path="url(#clip12_126_2575)">
<path d="M1155.66 354.01V345.211L1183.62 352.305V370.722L1155.66 377.884V369.085L1181.39 362.605V360.422L1155.66 354.01Z" fill="#F2F2F2"/>
<path d="M1150.2 369.085V377.884L1122.31 370.79V352.373L1150.2 345.211V354.01L1124.47 360.422V362.673L1150.2 369.085Z" fill="#F2F2F2"/>
</g>
<g clip-path="url(#clip13_126_2575)">
<path d="M1155.66 239.418V230.618L1183.62 237.712V256.129L1155.66 263.291V254.492L1181.39 248.012V245.829L1155.66 239.418Z" fill="#F2F2F2"/>
<path d="M1150.2 254.492V263.291L1122.31 256.197V237.781L1150.2 230.618V239.418L1124.47 245.829V248.08L1150.2 254.492Z" fill="#F2F2F2"/>
</g>
<g clip-path="url(#clip14_126_2575)">
<path d="M1155.66 124.825V116.026L1183.62 123.12V141.536L1155.66 148.698V139.899L1181.39 133.419V131.237L1155.66 124.825Z" fill="#F2F2F2"/>
<path d="M1150.2 139.899V148.698L1122.31 141.604V123.188L1150.2 116.026V124.825L1124.47 131.237V133.487L1150.2 139.899Z" fill="#F2F2F2"/>
</g>
<g clip-path="url(#clip15_126_2575)">
<path d="M1155.66 10.232V1.43294L1183.62 8.52677V26.9434L1155.66 34.1055V25.3064L1181.39 18.8265V16.6437L1155.66 10.232Z" fill="#F2F2F2"/>
<path d="M1150.2 25.3064V34.1055L1122.31 27.0116V8.59497L1150.2 1.43294V10.232L1124.47 16.6437V18.8947L1150.2 25.3064Z" fill="#F2F2F2"/>
</g>
<g clip-path="url(#clip16_126_2575)">
<path d="M888.275 352.646V343.847L916.234 350.941V369.357L888.275 376.52V367.72L914.006 361.241V359.058L888.275 352.646Z" fill="#F2F2F2"/>
<path d="M882.818 367.72V376.52L854.927 369.426V351.009L882.818 343.847V352.646L857.088 359.058V361.309L882.818 367.72Z" fill="#F2F2F2"/>
</g>
<g clip-path="url(#clip17_126_2575)">
<path d="M888.275 238.053V229.254L916.234 236.348V254.765L888.275 261.927V253.128L914.006 246.648V244.465L888.275 238.053Z" fill="#F2F2F2"/>
<path d="M882.818 253.128V261.927L854.927 254.833V236.416L882.818 229.254V238.053L857.088 244.465V246.716L882.818 253.128Z" fill="#F2F2F2"/>
</g>
<g clip-path="url(#clip18_126_2575)">
<path d="M888.275 123.461V114.661L916.234 121.755V140.172L888.275 147.334V138.535L914.006 132.055V129.872L888.275 123.461Z" fill="#F2F2F2"/>
<path d="M882.818 138.535V147.334L854.927 140.24V121.823L882.818 114.661V123.461L857.088 129.872V132.123L882.818 138.535Z" fill="#F2F2F2"/>
</g>
<g clip-path="url(#clip19_126_2575)">
<path d="M888.275 8.86775V0.0686799L916.234 7.16251V25.5792L888.275 32.7412V23.9421L914.006 17.4622V15.2795L888.275 8.86775Z" fill="#F2F2F2"/>
<path d="M882.818 23.9421V32.7412L854.927 25.6474V7.23072L882.818 0.0686799V8.86775L857.088 15.2795V17.5304L882.818 23.9421Z" fill="#F2F2F2"/>
</g>
<g clip-path="url(#clip20_126_2575)">
<path d="M1356.2 412.67V403.871L1384.15 410.965V429.382L1356.2 436.544V427.745L1381.93 421.265V419.082L1356.2 412.67Z" fill="#F2F2F2"/>
<path d="M1350.74 427.745V436.544L1322.85 429.45V411.033L1350.74 403.871V412.67L1325.01 419.082V421.333L1350.74 427.745Z" fill="#F2F2F2"/>
</g>
<g clip-path="url(#clip21_126_2575)">
<path d="M1356.2 298.078V289.279L1384.15 296.372V314.789L1356.2 321.951V313.152L1381.93 306.672V304.489L1356.2 298.078Z" fill="#F2F2F2"/>
<path d="M1350.74 313.152V321.951L1322.85 314.857V296.441L1350.74 289.279V298.078L1325.01 304.489V306.74L1350.74 313.152Z" fill="#F2F2F2"/>
</g>
<g clip-path="url(#clip22_126_2575)">
<path d="M1356.2 183.486V174.687L1384.15 181.781V200.197L1356.2 207.359V198.56L1381.93 192.08V189.898L1356.2 183.486Z" fill="#F2F2F2"/>
<path d="M1350.74 198.56V207.359L1322.85 200.266V181.849L1350.74 174.687V183.486L1325.01 189.898V192.149L1350.74 198.56Z" fill="#F2F2F2"/>
</g>
<g clip-path="url(#clip23_126_2575)">
<path d="M1356.2 68.8922V60.0931L1384.15 67.1869V85.6036L1356.2 92.7656V83.9666L1381.93 77.4866V75.3039L1356.2 68.8922Z" fill="#F2F2F2"/>
<path d="M1350.74 83.9666V92.7656L1322.85 85.6718V67.2551L1350.74 60.0931V68.8922L1325.01 75.3039V77.5548L1350.74 83.9666Z" fill="#F2F2F2"/>
</g>
<g clip-path="url(#clip24_126_2575)">
<path d="M1088.81 411.306V402.507L1116.77 409.601V428.018L1088.81 435.18V426.381L1114.54 419.901V417.718L1088.81 411.306Z" fill="#F2F2F2"/>
<path d="M1083.36 426.381V435.18L1055.46 428.086V409.669L1083.36 402.507V411.306L1057.63 417.718V419.969L1083.36 426.381Z" fill="#F2F2F2"/>
</g>
<g clip-path="url(#clip25_126_2575)">
<path d="M1088.81 296.713V287.914L1116.77 295.008V313.425L1088.81 320.587V311.788L1114.54 305.308V303.125L1088.81 296.713Z" fill="#F2F2F2"/>
<path d="M1083.36 311.788V320.587L1055.46 313.493V295.076L1083.36 287.914V296.713L1057.63 303.125V305.376L1083.36 311.788Z" fill="#F2F2F2"/>
</g>
<g clip-path="url(#clip26_126_2575)">
<path d="M1088.81 182.121V173.322L1116.77 180.415V198.832L1088.81 205.994V197.195L1114.54 190.715V188.532L1088.81 182.121Z" fill="#F2F2F2"/>
<path d="M1083.36 197.195V205.994L1055.46 198.9V180.484L1083.36 173.322V182.121L1057.63 188.532V190.783L1083.36 197.195Z" fill="#F2F2F2"/>
</g>
<g clip-path="url(#clip27_126_2575)">
<path d="M1088.81 67.5289V58.7298L1116.77 65.8236V84.2403L1088.81 91.4023V82.6033L1114.54 76.1233V73.9406L1088.81 67.5289Z" fill="#F2F2F2"/>
<path d="M1083.36 82.6033V91.4023L1055.46 84.3085V65.8918L1083.36 58.7298V67.5289L1057.63 73.9406V76.1915L1083.36 82.6033Z" fill="#F2F2F2"/>
</g>
<g clip-path="url(#clip28_126_2575)">
<path d="M821.429 409.942V401.143L849.389 408.237V426.653L821.429 433.815V425.016L847.16 418.536V416.354L821.429 409.942Z" fill="#F2F2F2"/>
</g>
<g clip-path="url(#clip29_126_2575)">
<path d="M821.429 295.35V286.551L849.389 293.645V312.062L821.429 319.224V310.425L847.16 303.945V301.762L821.429 295.35Z" fill="#F2F2F2"/>
</g>
<g clip-path="url(#clip30_126_2575)">
<path d="M821.429 180.756V171.957L849.389 179.051V197.468L821.429 204.63V195.831L847.16 189.351V187.168L821.429 180.756Z" fill="#F2F2F2"/>
</g>
<g clip-path="url(#clip31_126_2575)">
<path d="M821.429 66.1646V57.3656L849.389 64.4594V82.876L821.429 90.0381V81.239L847.16 74.7591V72.5764L821.429 66.1646Z" fill="#F2F2F2"/>
</g>
<g clip-path="url(#clip32_126_2575)">
<path d="M1289.35 355.374V346.575L1317.31 353.668V372.085L1289.35 379.247V370.448L1315.08 363.968V361.785L1289.35 355.374Z" fill="#F2F2F2"/>
<path d="M1283.89 370.448V379.247L1256 372.153V353.737L1283.89 346.575V355.374L1258.16 361.785V364.036L1283.89 370.448Z" fill="#F2F2F2"/>
</g>
<g clip-path="url(#clip33_126_2575)">
<path d="M1289.35 240.782V231.983L1317.31 239.077V257.493L1289.35 264.655V255.856L1315.08 249.376V247.194L1289.35 240.782Z" fill="#F2F2F2"/>
<path d="M1283.89 255.856V264.655L1256 257.561V239.145L1283.89 231.983V240.782L1258.16 247.194V249.444L1283.89 255.856Z" fill="#F2F2F2"/>
</g>
<g clip-path="url(#clip34_126_2575)">
<path d="M1289.35 126.189V117.39L1317.31 124.484V142.9L1289.35 150.062V141.263L1315.08 134.783V132.601L1289.35 126.189Z" fill="#F2F2F2"/>
<path d="M1283.89 141.263V150.062L1256 142.969V124.552L1283.89 117.39V126.189L1258.16 132.601V134.852L1283.89 141.263Z" fill="#F2F2F2"/>
</g>
<g clip-path="url(#clip35_126_2575)">
<path d="M1289.35 11.5963V2.7972L1317.31 9.89102V28.3077L1289.35 35.4697V26.6707L1315.08 20.1907V18.008L1289.35 11.5963Z" fill="#F2F2F2"/>
<path d="M1283.89 26.6707V35.4697L1256 28.3759V9.95923L1283.89 2.7972V11.5963L1258.16 18.008V20.2589L1283.89 26.6707Z" fill="#F2F2F2"/>
</g>
<g clip-path="url(#clip36_126_2575)">
<path d="M1021.97 354.01V345.211L1049.93 352.305V370.722L1021.97 377.884V369.085L1047.7 362.605V360.422L1021.97 354.01Z" fill="#F2F2F2"/>
<path d="M1016.51 369.085V377.884L988.618 370.79V352.373L1016.51 345.211V354.01L990.779 360.422V362.673L1016.51 369.085Z" fill="#F2F2F2"/>
</g>
<g clip-path="url(#clip37_126_2575)">
<path d="M1021.97 239.418V230.618L1049.93 237.712V256.129L1021.97 263.291V254.492L1047.7 248.012V245.829L1021.97 239.418Z" fill="#F2F2F2"/>
<path d="M1016.51 254.492V263.291L988.618 256.197V237.781L1016.51 230.618V239.418L990.779 245.829V248.08L1016.51 254.492Z" fill="#F2F2F2"/>
</g>
<g clip-path="url(#clip38_126_2575)">
<path d="M1021.97 124.825V116.026L1049.93 123.12V141.536L1021.97 148.698V139.899L1047.7 133.419V131.237L1021.97 124.825Z" fill="#F2F2F2"/>
<path d="M1016.51 139.899V148.698L988.618 141.604V123.188L1016.51 116.026V124.825L990.779 131.237V133.487L1016.51 139.899Z" fill="#F2F2F2"/>
</g>
<g clip-path="url(#clip39_126_2575)">
<path d="M1021.97 10.232V1.43294L1049.93 8.52677V26.9434L1021.97 34.1055V25.3064L1047.7 18.8265V16.6437L1021.97 10.232Z" fill="#F2F2F2"/>
<path d="M1016.51 25.3064V34.1055L988.618 27.0116V8.59497L1016.51 1.43294V10.232L990.779 16.6437V18.8947L1016.51 25.3064Z" fill="#F2F2F2"/>
</g>
<g clip-path="url(#clip40_126_2575)">
<path d="M415.496 411.306V402.507L387.537 409.601V428.018L415.496 435.18V426.381L389.766 419.901V417.718L415.496 411.306Z" fill="#F2F2F2"/>
<path d="M420.953 426.381V435.18L448.845 428.086V409.669L420.953 402.507V411.306L446.684 417.718V419.969L420.953 426.381Z" fill="#F2F2F2"/>
</g>
<g clip-path="url(#clip41_126_2575)">
<path d="M415.496 296.713V287.914L387.537 295.008V313.425L415.496 320.587V311.788L389.766 305.308V303.125L415.496 296.713Z" fill="#F2F2F2"/>
<path d="M420.953 311.788V320.587L448.845 313.493V295.076L420.953 287.914V296.713L446.684 303.125V305.376L420.953 311.788Z" fill="#F2F2F2"/>
</g>
<g clip-path="url(#clip42_126_2575)">
<path d="M415.496 182.121V173.322L387.537 180.415V198.832L415.496 205.994V197.195L389.766 190.715V188.532L415.496 182.121Z" fill="#F2F2F2"/>
<path d="M420.953 197.195V205.994L448.845 198.9V180.484L420.953 173.322V182.121L446.684 188.532V190.783L420.953 197.195Z" fill="#F2F2F2"/>
</g>
<g clip-path="url(#clip43_126_2575)">
<path d="M415.496 67.5289V58.7298L387.537 65.8236V84.2403L415.496 91.4023V82.6033L389.766 76.1233V73.9406L415.496 67.5289Z" fill="#F2F2F2"/>
<path d="M420.953 82.6033V91.4023L448.845 84.3085V65.8918L420.953 58.7298V67.5289L446.684 73.9406V76.1915L420.953 82.6033Z" fill="#F2F2F2"/>
</g>
<g clip-path="url(#clip44_126_2575)">
<path d="M682.879 409.942V401.143L654.92 408.237V426.653L682.879 433.815V425.016L657.149 418.536V416.354L682.879 409.942Z" fill="#F2F2F2"/>
<path d="M688.336 425.016V433.815L716.228 426.722V408.305L688.336 401.143V409.942L714.067 416.354V418.605L688.336 425.016Z" fill="#F2F2F2"/>
</g>
<g clip-path="url(#clip45_126_2575)">
<path d="M682.879 295.35V286.551L654.92 293.645V312.062L682.879 319.224V310.425L657.149 303.945V301.762L682.879 295.35Z" fill="#F2F2F2"/>
<path d="M688.336 310.425V319.224L716.228 312.13V293.713L688.336 286.551V295.35L714.067 301.762V304.013L688.336 310.425Z" fill="#F2F2F2"/>
</g>
<g clip-path="url(#clip46_126_2575)">
<path d="M682.879 180.756V171.957L654.92 179.051V197.468L682.879 204.63V195.831L657.149 189.351V187.168L682.879 180.756Z" fill="#F2F2F2"/>
<path d="M688.336 195.831V204.63L716.228 197.536V179.119L688.336 171.957V180.756L714.067 187.168V189.419L688.336 195.831Z" fill="#F2F2F2"/>
</g>
<g clip-path="url(#clip47_126_2575)">
<path d="M682.879 66.1646V57.3656L654.92 64.4594V82.876L682.879 90.0381V81.239L657.149 74.7591V72.5764L682.879 66.1646Z" fill="#F2F2F2"/>
<path d="M688.336 81.239V90.0381L716.228 82.9443V64.5276L688.336 57.3656V66.1646L714.067 72.5764V74.8273L688.336 81.239Z" fill="#F2F2F2"/>
</g>
<g clip-path="url(#clip48_126_2575)">
<path d="M220.416 370.448V379.247L248.308 372.153V353.737L220.416 346.575V355.374L246.147 361.785V364.036L220.416 370.448Z" fill="#F2F2F2"/>
</g>
<g clip-path="url(#clip49_126_2575)">
<path d="M220.416 255.856V264.655L248.308 257.561V239.145L220.416 231.983V240.782L246.147 247.194V249.444L220.416 255.856Z" fill="#F2F2F2"/>
</g>
<g clip-path="url(#clip50_126_2575)">
<path d="M220.416 141.263V150.062L248.308 142.969V124.552L220.416 117.39V126.189L246.147 132.601V134.852L220.416 141.263Z" fill="#F2F2F2"/>
</g>
<g clip-path="url(#clip51_126_2575)">
<path d="M220.416 26.6707V35.4697L248.308 28.3759V9.95923L220.416 2.7972V11.5963L246.147 18.008V20.2589L220.416 26.6707Z" fill="#F2F2F2"/>
</g>
<g clip-path="url(#clip52_126_2575)">
<path d="M482.342 354.01V345.211L454.383 352.305V370.722L482.342 377.884V369.085L456.611 362.605V360.422L482.342 354.01Z" fill="#F2F2F2"/>
<path d="M487.799 369.085V377.884L515.691 370.79V352.373L487.799 345.211V354.01L513.529 360.422V362.673L487.799 369.085Z" fill="#F2F2F2"/>
</g>
<g clip-path="url(#clip53_126_2575)">
<path d="M482.342 239.418V230.618L454.383 237.712V256.129L482.342 263.291V254.492L456.611 248.012V245.829L482.342 239.418Z" fill="#F2F2F2"/>
<path d="M487.799 254.492V263.291L515.691 256.197V237.781L487.799 230.618V239.418L513.529 245.829V248.08L487.799 254.492Z" fill="#F2F2F2"/>
</g>
<g clip-path="url(#clip54_126_2575)">
<path d="M482.342 124.825V116.026L454.383 123.12V141.536L482.342 148.698V139.899L456.611 133.419V131.237L482.342 124.825Z" fill="#F2F2F2"/>
<path d="M487.799 139.899V148.698L515.691 141.604V123.188L487.799 116.026V124.825L513.529 131.237V133.487L487.799 139.899Z" fill="#F2F2F2"/>
</g>
<g clip-path="url(#clip55_126_2575)">
<path d="M482.342 10.232V1.43294L454.383 8.52677V26.9434L482.342 34.1055V25.3064L456.611 18.8265V16.6437L482.342 10.232Z" fill="#F2F2F2"/>
<path d="M487.799 25.3064V34.1055L515.691 27.0116V8.59497L487.799 1.43294V10.232L513.529 16.6437V18.8947L487.799 25.3064Z" fill="#F2F2F2"/>
</g>
<g clip-path="url(#clip56_126_2575)">
<path d="M749.725 352.646V343.847L721.766 350.941V369.357L749.725 376.52V367.72L723.994 361.241V359.058L749.725 352.646Z" fill="#F2F2F2"/>
<path d="M755.182 367.72V376.52L783.073 369.426V351.009L755.182 343.847V352.646L780.912 359.058V361.309L755.182 367.72Z" fill="#F2F2F2"/>
</g>
<g clip-path="url(#clip57_126_2575)">
<path d="M749.725 238.053V229.254L721.766 236.348V254.765L749.725 261.927V253.128L723.994 246.648V244.465L749.725 238.053Z" fill="#F2F2F2"/>
<path d="M755.182 253.128V261.927L783.073 254.833V236.416L755.182 229.254V238.053L780.912 244.465V246.716L755.182 253.128Z" fill="#F2F2F2"/>
</g>
<g clip-path="url(#clip58_126_2575)">
<path d="M749.725 123.461V114.661L721.766 121.755V140.172L749.725 147.334V138.535L723.994 132.055V129.872L749.725 123.461Z" fill="#F2F2F2"/>
<path d="M755.182 138.535V147.334L783.073 140.24V121.823L755.182 114.661V123.461L780.912 129.872V132.123L755.182 138.535Z" fill="#F2F2F2"/>
</g>
<g clip-path="url(#clip59_126_2575)">
<path d="M749.725 8.86775V0.0686799L721.766 7.16251V25.5792L749.725 32.7412V23.9421L723.994 17.4622V15.2795L749.725 8.86775Z" fill="#F2F2F2"/>
<path d="M755.182 23.9421V32.7412L783.073 25.6474V7.23072L755.182 0.0686799V8.86775L780.912 15.2795V17.5304L755.182 23.9421Z" fill="#F2F2F2"/>
</g>
<g clip-path="url(#clip60_126_2575)">
<path d="M281.805 412.67V403.871L253.846 410.965V429.382L281.805 436.544V427.745L256.074 421.265V419.082L281.805 412.67Z" fill="#F2F2F2"/>
<path d="M287.262 427.745V436.544L315.153 429.45V411.033L287.262 403.871V412.67L312.992 419.082V421.333L287.262 427.745Z" fill="#F2F2F2"/>
</g>
<g clip-path="url(#clip61_126_2575)">
<path d="M281.805 298.078V289.279L253.846 296.372V314.789L281.805 321.951V313.152L256.074 306.672V304.489L281.805 298.078Z" fill="#F2F2F2"/>
<path d="M287.262 313.152V321.951L315.153 314.857V296.441L287.262 289.279V298.078L312.992 304.489V306.74L287.262 313.152Z" fill="#F2F2F2"/>
</g>
<g clip-path="url(#clip62_126_2575)">
<path d="M281.805 183.486V174.687L253.846 181.781V200.197L281.805 207.359V198.56L256.074 192.08V189.898L281.805 183.486Z" fill="#F2F2F2"/>
<path d="M287.262 198.56V207.359L315.153 200.266V181.849L287.262 174.687V183.486L312.992 189.898V192.149L287.262 198.56Z" fill="#F2F2F2"/>
</g>
<g clip-path="url(#clip63_126_2575)">
<path d="M281.805 68.8922V60.0931L253.846 67.1869V85.6036L281.805 92.7656V83.9666L256.074 77.4866V75.3039L281.805 68.8922Z" fill="#F2F2F2"/>
<path d="M287.262 83.9666V92.7656L315.153 85.6718V67.2551L287.262 60.0931V68.8922L312.992 75.3039V77.5548L287.262 83.9666Z" fill="#F2F2F2"/>
</g>
<g clip-path="url(#clip64_126_2575)">
<path d="M549.187 411.306V402.507L521.228 409.601V428.018L549.187 435.18V426.381L523.457 419.901V417.718L549.187 411.306Z" fill="#F2F2F2"/>
<path d="M554.644 426.381V435.18L582.536 428.086V409.669L554.644 402.507V411.306L580.375 417.718V419.969L554.644 426.381Z" fill="#F2F2F2"/>
</g>
<g clip-path="url(#clip65_126_2575)">
<path d="M549.187 296.713V287.914L521.228 295.008V313.425L549.187 320.587V311.788L523.457 305.308V303.125L549.187 296.713Z" fill="#F2F2F2"/>
<path d="M554.644 311.788V320.587L582.536 313.493V295.076L554.644 287.914V296.713L580.375 303.125V305.376L554.644 311.788Z" fill="#F2F2F2"/>
</g>
<g clip-path="url(#clip66_126_2575)">
<path d="M549.187 182.121V173.322L521.228 180.415V198.832L549.187 205.994V197.195L523.457 190.715V188.532L549.187 182.121Z" fill="#F2F2F2"/>
<path d="M554.644 197.195V205.994L582.536 198.9V180.484L554.644 173.322V182.121L580.375 188.532V190.783L554.644 197.195Z" fill="#F2F2F2"/>
</g>
<g clip-path="url(#clip67_126_2575)">
<path d="M549.187 67.5289V58.7298L521.228 65.8236V84.2403L549.187 91.4023V82.6033L523.457 76.1233V73.9406L549.187 67.5289Z" fill="#F2F2F2"/>
<path d="M554.644 82.6033V91.4023L582.536 84.3085V65.8918L554.644 58.7298V67.5289L580.375 73.9406V76.1915L554.644 82.6033Z" fill="#F2F2F2"/>
</g>
<g clip-path="url(#clip68_126_2575)">
<path d="M816.571 409.942V401.143L788.611 408.237V426.653L816.571 433.815V425.016L790.84 418.536V416.354L816.571 409.942Z" fill="#F2F2F2"/>
</g>
<g clip-path="url(#clip69_126_2575)">
<path d="M816.571 295.35V286.551L788.611 293.645V312.062L816.571 319.224V310.425L790.84 303.945V301.762L816.571 295.35Z" fill="#F2F2F2"/>
</g>
<g clip-path="url(#clip70_126_2575)">
<path d="M816.571 180.756V171.957L788.611 179.051V197.468L816.571 204.63V195.831L790.84 189.351V187.168L816.571 180.756Z" fill="#F2F2F2"/>
</g>
<g clip-path="url(#clip71_126_2575)">
<path d="M816.571 66.1646V57.3656L788.611 64.4594V82.876L816.571 90.0381V81.239L790.84 74.7591V72.5764L816.571 66.1646Z" fill="#F2F2F2"/>
</g>
<g clip-path="url(#clip72_126_2575)">
<path d="M348.651 355.374V346.575L320.691 353.668V372.085L348.651 379.247V370.448L322.92 363.968V361.785L348.651 355.374Z" fill="#F2F2F2"/>
<path d="M354.107 370.448V379.247L381.999 372.153V353.737L354.107 346.575V355.374L379.838 361.785V364.036L354.107 370.448Z" fill="#F2F2F2"/>
</g>
<g clip-path="url(#clip73_126_2575)">
<path d="M348.651 240.782V231.983L320.691 239.077V257.493L348.651 264.655V255.856L322.92 249.376V247.194L348.651 240.782Z" fill="#F2F2F2"/>
<path d="M354.107 255.856V264.655L381.999 257.561V239.145L354.107 231.983V240.782L379.838 247.194V249.444L354.107 255.856Z" fill="#F2F2F2"/>
</g>
<g clip-path="url(#clip74_126_2575)">
<path d="M348.651 126.189V117.39L320.691 124.484V142.9L348.651 150.062V141.263L322.92 134.783V132.601L348.651 126.189Z" fill="#F2F2F2"/>
<path d="M354.107 141.263V150.062L381.999 142.969V124.552L354.107 117.39V126.189L379.838 132.601V134.852L354.107 141.263Z" fill="#F2F2F2"/>
</g>
<g clip-path="url(#clip75_126_2575)">
<path d="M348.651 11.5963V2.7972L320.691 9.89102V28.3077L348.651 35.4697V26.6707L322.92 20.1907V18.008L348.651 11.5963Z" fill="#F2F2F2"/>
<path d="M354.107 26.6707V35.4697L381.999 28.3759V9.95923L354.107 2.7972V11.5963L379.838 18.008V20.2589L354.107 26.6707Z" fill="#F2F2F2"/>
</g>
<g clip-path="url(#clip76_126_2575)">
<path d="M616.034 354.01V345.211L588.074 352.305V370.722L616.034 377.884V369.085L590.303 362.605V360.422L616.034 354.01Z" fill="#F2F2F2"/>
<path d="M621.49 369.085V377.884L649.382 370.79V352.373L621.49 345.211V354.01L647.221 360.422V362.673L621.49 369.085Z" fill="#F2F2F2"/>
</g>
<g clip-path="url(#clip77_126_2575)">
<path d="M616.034 239.418V230.618L588.074 237.712V256.129L616.034 263.291V254.492L590.303 248.012V245.829L616.034 239.418Z" fill="#F2F2F2"/>
<path d="M621.49 254.492V263.291L649.382 256.197V237.781L621.49 230.618V239.418L647.221 245.829V248.08L621.49 254.492Z" fill="#F2F2F2"/>
</g>
<g clip-path="url(#clip78_126_2575)">
<path d="M616.034 124.825V116.026L588.074 123.12V141.536L616.034 148.698V139.899L590.303 133.419V131.237L616.034 124.825Z" fill="#F2F2F2"/>
<path d="M621.49 139.899V148.698L649.382 141.604V123.188L621.49 116.026V124.825L647.221 131.237V133.487L621.49 139.899Z" fill="#F2F2F2"/>
</g>
<g clip-path="url(#clip79_126_2575)">
<path d="M616.034 10.232V1.43294L588.074 8.52677V26.9434L616.034 34.1055V25.3064L590.303 18.8265V16.6437L616.034 10.232Z" fill="#F2F2F2"/>
<path d="M621.49 25.3064V34.1055L649.382 27.0116V8.59497L621.49 1.43294V10.232L647.221 16.6437V18.8947L621.49 25.3064Z" fill="#F2F2F2"/>
</g>
<g clip-path="url(#clip80_126_2575)">
<path d="M1222.5 869.306V860.507L1250.46 867.601V886.018L1222.5 893.18V884.381L1248.23 877.901V875.718L1222.5 869.306Z" fill="#F2F2F2"/>
<path d="M1217.05 884.381V893.18L1189.16 886.086V867.669L1217.05 860.507V869.306L1191.32 875.718V877.969L1217.05 884.381Z" fill="#F2F2F2"/>
</g>
<g clip-path="url(#clip81_126_2575)">
<path d="M1222.5 754.713V745.914L1250.46 753.008V771.425L1222.5 778.587V769.788L1248.23 763.308V761.125L1222.5 754.713Z" fill="#F2F2F2"/>
<path d="M1217.05 769.788V778.587L1189.16 771.493V753.076L1217.05 745.914V754.713L1191.32 761.125V763.376L1217.05 769.788Z" fill="#F2F2F2"/>
</g>
<g clip-path="url(#clip82_126_2575)">
<path d="M1222.5 640.121V631.322L1250.46 638.415V656.832L1222.5 663.994V655.195L1248.23 648.715V646.532L1222.5 640.121Z" fill="#F2F2F2"/>
<path d="M1217.05 655.195V663.994L1189.16 656.9V638.484L1217.05 631.322V640.121L1191.32 646.532V648.783L1217.05 655.195Z" fill="#F2F2F2"/>
</g>
<g clip-path="url(#clip83_126_2575)">
<path d="M1222.5 525.529V516.73L1250.46 523.824V542.24L1222.5 549.402V540.603L1248.23 534.123V531.941L1222.5 525.529Z" fill="#F2F2F2"/>
<path d="M1217.05 540.603V549.402L1189.16 542.309V523.892L1217.05 516.73V525.529L1191.32 531.941V534.192L1217.05 540.603Z" fill="#F2F2F2"/>
</g>
<g clip-path="url(#clip84_126_2575)">
<path d="M955.121 867.942V859.143L983.08 866.237V884.653L955.121 891.815V883.016L980.851 876.536V874.354L955.121 867.942Z" fill="#F2F2F2"/>
<path d="M949.664 883.016V891.815L921.772 884.722V866.305L949.664 859.143V867.942L923.933 874.354V876.605L949.664 883.016Z" fill="#F2F2F2"/>
</g>
<g clip-path="url(#clip85_126_2575)">
<path d="M955.121 753.35V744.551L983.08 751.645V770.062L955.121 777.224V768.425L980.851 761.945V759.762L955.121 753.35Z" fill="#F2F2F2"/>
<path d="M949.664 768.425V777.224L921.772 770.13V751.713L949.664 744.551V753.35L923.933 759.762V762.013L949.664 768.425Z" fill="#F2F2F2"/>
</g>
<g clip-path="url(#clip86_126_2575)">
<path d="M955.121 638.756V629.957L983.08 637.051V655.468L955.121 662.63V653.831L980.851 647.351V645.168L955.121 638.756Z" fill="#F2F2F2"/>
<path d="M949.664 653.831V662.63L921.772 655.536V637.119L949.664 629.957V638.756L923.933 645.168V647.419L949.664 653.831Z" fill="#F2F2F2"/>
</g>
<g clip-path="url(#clip87_126_2575)">
<path d="M955.121 524.165V515.366L983.08 522.459V540.876L955.121 548.038V539.239L980.851 532.759V530.576L955.121 524.165Z" fill="#F2F2F2"/>
<path d="M949.664 539.239V548.038L921.772 540.944V522.528L949.664 515.366V524.165L923.933 530.576V532.827L949.664 539.239Z" fill="#F2F2F2"/>
</g>
<g clip-path="url(#clip88_126_2575)">
<path d="M1417.58 828.448V837.247L1389.69 830.153V811.737L1417.58 804.575V813.374L1391.85 819.785V822.036L1417.58 828.448Z" fill="#F2F2F2"/>
</g>
<g clip-path="url(#clip89_126_2575)">
<path d="M1417.58 713.856V722.655L1389.69 715.561V697.145L1417.58 689.983V698.782L1391.85 705.194V707.444L1417.58 713.856Z" fill="#F2F2F2"/>
</g>
<g clip-path="url(#clip90_126_2575)">
<path d="M1417.58 599.263V608.062L1389.69 600.969V582.552L1417.58 575.39V584.189L1391.85 590.601V592.852L1417.58 599.263Z" fill="#F2F2F2"/>
</g>
<g clip-path="url(#clip91_126_2575)">
<path d="M1417.58 484.671V493.47L1389.69 486.376V467.959L1417.58 460.797V469.596L1391.85 476.008V478.259L1417.58 484.671Z" fill="#F2F2F2"/>
</g>
<g clip-path="url(#clip92_126_2575)">
<path d="M1155.66 812.01V803.211L1183.62 810.305V828.722L1155.66 835.884V827.085L1181.39 820.605V818.422L1155.66 812.01Z" fill="#F2F2F2"/>
<path d="M1150.2 827.085V835.884L1122.31 828.79V810.373L1150.2 803.211V812.01L1124.47 818.422V820.673L1150.2 827.085Z" fill="#F2F2F2"/>
</g>
<g clip-path="url(#clip93_126_2575)">
<path d="M1155.66 697.418V688.618L1183.62 695.712V714.129L1155.66 721.291V712.492L1181.39 706.012V703.829L1155.66 697.418Z" fill="#F2F2F2"/>
<path d="M1150.2 712.492V721.291L1122.31 714.197V695.781L1150.2 688.618V697.418L1124.47 703.829V706.08L1150.2 712.492Z" fill="#F2F2F2"/>
</g>
<g clip-path="url(#clip94_126_2575)">
<path d="M1155.66 582.825V574.026L1183.62 581.12V599.536L1155.66 606.698V597.899L1181.39 591.419V589.237L1155.66 582.825Z" fill="#F2F2F2"/>
<path d="M1150.2 597.899V606.698L1122.31 599.604V581.188L1150.2 574.026V582.825L1124.47 589.237V591.487L1150.2 597.899Z" fill="#F2F2F2"/>
</g>
<g clip-path="url(#clip95_126_2575)">
<path d="M1155.66 468.232V459.433L1183.62 466.527V484.943L1155.66 492.105V483.306L1181.39 476.826V474.644L1155.66 468.232Z" fill="#F2F2F2"/>
<path d="M1150.2 483.306V492.105L1122.31 485.012V466.595L1150.2 459.433V468.232L1124.47 474.644V476.895L1150.2 483.306Z" fill="#F2F2F2"/>
</g>
<g clip-path="url(#clip96_126_2575)">
<path d="M888.275 810.646V801.847L916.234 808.941V827.357L888.275 834.52V825.72L914.006 819.241V817.058L888.275 810.646Z" fill="#F2F2F2"/>
<path d="M882.818 825.72V834.52L854.927 827.426V809.009L882.818 801.847V810.646L857.088 817.058V819.309L882.818 825.72Z" fill="#F2F2F2"/>
</g>
<g clip-path="url(#clip97_126_2575)">
<path d="M888.275 696.053V687.254L916.234 694.348V712.765L888.275 719.927V711.128L914.006 704.648V702.465L888.275 696.053Z" fill="#F2F2F2"/>
<path d="M882.818 711.128V719.927L854.927 712.833V694.416L882.818 687.254V696.053L857.088 702.465V704.716L882.818 711.128Z" fill="#F2F2F2"/>
</g>
<g clip-path="url(#clip98_126_2575)">
<path d="M888.275 581.461V572.661L916.234 579.755V598.172L888.275 605.334V596.535L914.006 590.055V587.872L888.275 581.461Z" fill="#F2F2F2"/>
<path d="M882.818 596.535V605.334L854.927 598.24V579.823L882.818 572.661V581.461L857.088 587.872V590.123L882.818 596.535Z" fill="#F2F2F2"/>
</g>
<g clip-path="url(#clip99_126_2575)">
<path d="M888.275 466.868V458.069L916.234 465.163V483.579L888.275 490.741V481.942L914.006 475.462V473.279L888.275 466.868Z" fill="#F2F2F2"/>
<path d="M882.818 481.942V490.741L854.927 483.647V465.231L882.818 458.069V466.868L857.088 473.279V475.53L882.818 481.942Z" fill="#F2F2F2"/>
</g>
<g clip-path="url(#clip100_126_2575)">
<path d="M1356.2 870.67V861.871L1384.15 868.965V887.382L1356.2 894.544V885.745L1381.93 879.265V877.082L1356.2 870.67Z" fill="#F2F2F2"/>
<path d="M1350.74 885.745V894.544L1322.85 887.45V869.033L1350.74 861.871V870.67L1325.01 877.082V879.333L1350.74 885.745Z" fill="#F2F2F2"/>
</g>
<g clip-path="url(#clip101_126_2575)">
<path d="M1356.2 756.078V747.279L1384.15 754.372V772.789L1356.2 779.951V771.152L1381.93 764.672V762.489L1356.2 756.078Z" fill="#F2F2F2"/>
<path d="M1350.74 771.152V779.951L1322.85 772.857V754.441L1350.74 747.279V756.078L1325.01 762.489V764.74L1350.74 771.152Z" fill="#F2F2F2"/>
</g>
<g clip-path="url(#clip102_126_2575)">
<path d="M1356.2 641.486V632.687L1384.15 639.781V658.197L1356.2 665.359V656.56L1381.93 650.08V647.898L1356.2 641.486Z" fill="#F2F2F2"/>
<path d="M1350.74 656.56V665.359L1322.85 658.266V639.849L1350.74 632.687V641.486L1325.01 647.898V650.149L1350.74 656.56Z" fill="#F2F2F2"/>
</g>
<g clip-path="url(#clip103_126_2575)">
<path d="M1356.2 526.892V518.093L1384.15 525.187V543.604L1356.2 550.766V541.967L1381.93 535.487V533.304L1356.2 526.892Z" fill="#F2F2F2"/>
<path d="M1350.74 541.967V550.766L1322.85 543.672V525.255L1350.74 518.093V526.892L1325.01 533.304V535.555L1350.74 541.967Z" fill="#F2F2F2"/>
</g>
<g clip-path="url(#clip104_126_2575)">
<path d="M1088.81 869.306V860.507L1116.77 867.601V886.018L1088.81 893.18V884.381L1114.54 877.901V875.718L1088.81 869.306Z" fill="#F2F2F2"/>
<path d="M1083.36 884.381V893.18L1055.46 886.086V867.669L1083.36 860.507V869.306L1057.63 875.718V877.969L1083.36 884.381Z" fill="#F2F2F2"/>
</g>
<g clip-path="url(#clip105_126_2575)">
<path d="M1088.81 754.713V745.914L1116.77 753.008V771.425L1088.81 778.587V769.788L1114.54 763.308V761.125L1088.81 754.713Z" fill="#F2F2F2"/>
<path d="M1083.36 769.788V778.587L1055.46 771.493V753.076L1083.36 745.914V754.713L1057.63 761.125V763.376L1083.36 769.788Z" fill="#F2F2F2"/>
</g>
<g clip-path="url(#clip106_126_2575)">
<path d="M1088.81 640.121V631.322L1116.77 638.415V656.832L1088.81 663.994V655.195L1114.54 648.715V646.532L1088.81 640.121Z" fill="#F2F2F2"/>
<path d="M1083.36 655.195V663.994L1055.46 656.9V638.484L1083.36 631.322V640.121L1057.63 646.532V648.783L1083.36 655.195Z" fill="#F2F2F2"/>
</g>
<g clip-path="url(#clip107_126_2575)">
<path d="M1088.81 525.529V516.73L1116.77 523.824V542.24L1088.81 549.402V540.603L1114.54 534.123V531.941L1088.81 525.529Z" fill="#F2F2F2"/>
<path d="M1083.36 540.603V549.402L1055.46 542.309V523.892L1083.36 516.73V525.529L1057.63 531.941V534.192L1083.36 540.603Z" fill="#F2F2F2"/>
</g>
<g clip-path="url(#clip108_126_2575)">
<path d="M821.429 867.942V859.143L849.389 866.237V884.653L821.429 891.815V883.016L847.16 876.536V874.354L821.429 867.942Z" fill="#F2F2F2"/>
</g>
<g clip-path="url(#clip109_126_2575)">
<path d="M821.429 753.35V744.551L849.389 751.645V770.062L821.429 777.224V768.425L847.16 761.945V759.762L821.429 753.35Z" fill="#F2F2F2"/>
</g>
<g clip-path="url(#clip110_126_2575)">
<path d="M821.429 638.756V629.957L849.389 637.051V655.468L821.429 662.63V653.831L847.16 647.351V645.168L821.429 638.756Z" fill="#F2F2F2"/>
</g>
<g clip-path="url(#clip111_126_2575)">
<path d="M821.429 524.165V515.366L849.389 522.459V540.876L821.429 548.038V539.239L847.16 532.759V530.576L821.429 524.165Z" fill="#F2F2F2"/>
</g>
<g clip-path="url(#clip112_126_2575)">
<path d="M1289.35 813.374V804.575L1317.31 811.668V830.085L1289.35 837.247V828.448L1315.08 821.968V819.785L1289.35 813.374Z" fill="#F2F2F2"/>
<path d="M1283.89 828.448V837.247L1256 830.153V811.737L1283.89 804.575V813.374L1258.16 819.785V822.036L1283.89 828.448Z" fill="#F2F2F2"/>
</g>
<g clip-path="url(#clip113_126_2575)">
<path d="M1289.35 698.782V689.983L1317.31 697.077V715.493L1289.35 722.655V713.856L1315.08 707.376V705.194L1289.35 698.782Z" fill="#F2F2F2"/>
<path d="M1283.89 713.856V722.655L1256 715.561V697.145L1283.89 689.983V698.782L1258.16 705.194V707.444L1283.89 713.856Z" fill="#F2F2F2"/>
</g>
<g clip-path="url(#clip114_126_2575)">
<path d="M1289.35 584.189V575.39L1317.31 582.484V600.9L1289.35 608.062V599.263L1315.08 592.783V590.601L1289.35 584.189Z" fill="#F2F2F2"/>
<path d="M1283.89 599.263V608.062L1256 600.969V582.552L1283.89 575.39V584.189L1258.16 590.601V592.852L1283.89 599.263Z" fill="#F2F2F2"/>
</g>
<g clip-path="url(#clip115_126_2575)">
<path d="M1289.35 469.596V460.797L1317.31 467.891V486.308L1289.35 493.47V484.671L1315.08 478.191V476.008L1289.35 469.596Z" fill="#F2F2F2"/>
<path d="M1283.89 484.671V493.47L1256 486.376V467.959L1283.89 460.797V469.596L1258.16 476.008V478.259L1283.89 484.671Z" fill="#F2F2F2"/>
</g>
<g clip-path="url(#clip116_126_2575)">
<path d="M1021.97 812.01V803.211L1049.93 810.305V828.722L1021.97 835.884V827.085L1047.7 820.605V818.422L1021.97 812.01Z" fill="#F2F2F2"/>
<path d="M1016.51 827.085V835.884L988.618 828.79V810.373L1016.51 803.211V812.01L990.779 818.422V820.673L1016.51 827.085Z" fill="#F2F2F2"/>
</g>
<g clip-path="url(#clip117_126_2575)">
<path d="M1021.97 697.418V688.618L1049.93 695.712V714.129L1021.97 721.291V712.492L1047.7 706.012V703.829L1021.97 697.418Z" fill="#F2F2F2"/>
<path d="M1016.51 712.492V721.291L988.618 714.197V695.781L1016.51 688.618V697.418L990.779 703.829V706.08L1016.51 712.492Z" fill="#F2F2F2"/>
</g>
<g clip-path="url(#clip118_126_2575)">
<path d="M1021.97 582.825V574.026L1049.93 581.12V599.536L1021.97 606.698V597.899L1047.7 591.419V589.237L1021.97 582.825Z" fill="#F2F2F2"/>
<path d="M1016.51 597.899V606.698L988.618 599.604V581.188L1016.51 574.026V582.825L990.779 589.237V591.487L1016.51 597.899Z" fill="#F2F2F2"/>
</g>
<g clip-path="url(#clip119_126_2575)">
<path d="M1021.97 468.232V459.433L1049.93 466.527V484.943L1021.97 492.105V483.306L1047.7 476.826V474.644L1021.97 468.232Z" fill="#F2F2F2"/>
<path d="M1016.51 483.306V492.105L988.618 485.012V466.595L1016.51 459.433V468.232L990.779 474.644V476.895L1016.51 483.306Z" fill="#F2F2F2"/>
</g>
<g clip-path="url(#clip120_126_2575)">
<path d="M415.496 869.306V860.507L387.537 867.601V886.018L415.496 893.18V884.381L389.766 877.901V875.718L415.496 869.306Z" fill="#F2F2F2"/>
<path d="M420.953 884.381V893.18L448.845 886.086V867.669L420.953 860.507V869.306L446.684 875.718V877.969L420.953 884.381Z" fill="#F2F2F2"/>
</g>
<g clip-path="url(#clip121_126_2575)">
<path d="M415.496 754.713V745.914L387.537 753.008V771.425L415.496 778.587V769.788L389.766 763.308V761.125L415.496 754.713Z" fill="#F2F2F2"/>
<path d="M420.953 769.788V778.587L448.845 771.493V753.076L420.953 745.914V754.713L446.684 761.125V763.376L420.953 769.788Z" fill="#F2F2F2"/>
</g>
<g clip-path="url(#clip122_126_2575)">
<path d="M415.496 640.121V631.322L387.537 638.415V656.832L415.496 663.994V655.195L389.766 648.715V646.532L415.496 640.121Z" fill="#F2F2F2"/>
<path d="M420.953 655.195V663.994L448.845 656.9V638.484L420.953 631.322V640.121L446.684 646.532V648.783L420.953 655.195Z" fill="#F2F2F2"/>
</g>
<g clip-path="url(#clip123_126_2575)">
<path d="M415.496 525.529V516.73L387.537 523.824V542.24L415.496 549.402V540.603L389.766 534.123V531.941L415.496 525.529Z" fill="#F2F2F2"/>
<path d="M420.953 540.603V549.402L448.845 542.309V523.892L420.953 516.73V525.529L446.684 531.941V534.192L420.953 540.603Z" fill="#F2F2F2"/>
</g>
<g clip-path="url(#clip124_126_2575)">
<path d="M682.879 867.942V859.143L654.92 866.237V884.653L682.879 891.815V883.016L657.149 876.536V874.354L682.879 867.942Z" fill="#F2F2F2"/>
<path d="M688.336 883.016V891.815L716.228 884.722V866.305L688.336 859.143V867.942L714.067 874.354V876.605L688.336 883.016Z" fill="#F2F2F2"/>
</g>
<g clip-path="url(#clip125_126_2575)">
<path d="M682.879 753.35V744.551L654.92 751.645V770.062L682.879 777.224V768.425L657.149 761.945V759.762L682.879 753.35Z" fill="#F2F2F2"/>
<path d="M688.336 768.425V777.224L716.228 770.13V751.713L688.336 744.551V753.35L714.067 759.762V762.013L688.336 768.425Z" fill="#F2F2F2"/>
</g>
<g clip-path="url(#clip126_126_2575)">
<path d="M682.879 638.756V629.957L654.92 637.051V655.468L682.879 662.63V653.831L657.149 647.351V645.168L682.879 638.756Z" fill="#F2F2F2"/>
<path d="M688.336 653.831V662.63L716.228 655.536V637.119L688.336 629.957V638.756L714.067 645.168V647.419L688.336 653.831Z" fill="#F2F2F2"/>
</g>
<g clip-path="url(#clip127_126_2575)">
<path d="M682.879 524.165V515.366L654.92 522.459V540.876L682.879 548.038V539.239L657.149 532.759V530.576L682.879 524.165Z" fill="#F2F2F2"/>
<path d="M688.336 539.239V548.038L716.228 540.944V522.528L688.336 515.366V524.165L714.067 530.576V532.827L688.336 539.239Z" fill="#F2F2F2"/>
</g>
<g clip-path="url(#clip128_126_2575)">
<path d="M220.416 828.448V837.247L248.308 830.153V811.737L220.416 804.575V813.374L246.147 819.785V822.036L220.416 828.448Z" fill="#F2F2F2"/>
</g>
<g clip-path="url(#clip129_126_2575)">
<path d="M220.416 713.856V722.655L248.308 715.561V697.145L220.416 689.983V698.782L246.147 705.194V707.444L220.416 713.856Z" fill="#F2F2F2"/>
</g>
<g clip-path="url(#clip130_126_2575)">
<path d="M220.416 599.263V608.062L248.308 600.969V582.552L220.416 575.39V584.189L246.147 590.601V592.852L220.416 599.263Z" fill="#F2F2F2"/>
</g>
<g clip-path="url(#clip131_126_2575)">
<path d="M220.416 484.671V493.47L248.308 486.376V467.959L220.416 460.797V469.596L246.147 476.008V478.259L220.416 484.671Z" fill="#F2F2F2"/>
</g>
<g clip-path="url(#clip132_126_2575)">
<path d="M482.342 812.01V803.211L454.383 810.305V828.722L482.342 835.884V827.085L456.611 820.605V818.422L482.342 812.01Z" fill="#F2F2F2"/>
<path d="M487.799 827.085V835.884L515.691 828.79V810.373L487.799 803.211V812.01L513.529 818.422V820.673L487.799 827.085Z" fill="#F2F2F2"/>
</g>
<g clip-path="url(#clip133_126_2575)">
<path d="M482.342 697.418V688.618L454.383 695.712V714.129L482.342 721.291V712.492L456.611 706.012V703.829L482.342 697.418Z" fill="#F2F2F2"/>
<path d="M487.799 712.492V721.291L515.691 714.197V695.781L487.799 688.618V697.418L513.529 703.829V706.08L487.799 712.492Z" fill="#F2F2F2"/>
</g>
<g clip-path="url(#clip134_126_2575)">
<path d="M482.342 582.825V574.026L454.383 581.12V599.536L482.342 606.698V597.899L456.611 591.419V589.237L482.342 582.825Z" fill="#F2F2F2"/>
<path d="M487.799 597.899V606.698L515.691 599.604V581.188L487.799 574.026V582.825L513.529 589.237V591.487L487.799 597.899Z" fill="#F2F2F2"/>
</g>
<g clip-path="url(#clip135_126_2575)">
<path d="M482.342 468.232V459.433L454.383 466.527V484.943L482.342 492.105V483.306L456.611 476.826V474.644L482.342 468.232Z" fill="#F2F2F2"/>
<path d="M487.799 483.306V492.105L515.691 485.012V466.595L487.799 459.433V468.232L513.529 474.644V476.895L487.799 483.306Z" fill="#F2F2F2"/>
</g>
<g clip-path="url(#clip136_126_2575)">
<path d="M749.725 810.646V801.847L721.766 808.941V827.357L749.725 834.52V825.72L723.994 819.241V817.058L749.725 810.646Z" fill="#F2F2F2"/>
<path d="M755.182 825.72V834.52L783.073 827.426V809.009L755.182 801.847V810.646L780.912 817.058V819.309L755.182 825.72Z" fill="#F2F2F2"/>
</g>
<g clip-path="url(#clip137_126_2575)">
<path d="M749.725 696.053V687.254L721.766 694.348V712.765L749.725 719.927V711.128L723.994 704.648V702.465L749.725 696.053Z" fill="#F2F2F2"/>
<path d="M755.182 711.128V719.927L783.073 712.833V694.416L755.182 687.254V696.053L780.912 702.465V704.716L755.182 711.128Z" fill="#F2F2F2"/>
</g>
<g clip-path="url(#clip138_126_2575)">
<path d="M749.725 581.461V572.661L721.766 579.755V598.172L749.725 605.334V596.535L723.994 590.055V587.872L749.725 581.461Z" fill="#F2F2F2"/>
<path d="M755.182 596.535V605.334L783.073 598.24V579.823L755.182 572.661V581.461L780.912 587.872V590.123L755.182 596.535Z" fill="#F2F2F2"/>
</g>
<g clip-path="url(#clip139_126_2575)">
<path d="M749.725 466.868V458.069L721.766 465.163V483.579L749.725 490.741V481.942L723.994 475.462V473.279L749.725 466.868Z" fill="#F2F2F2"/>
<path d="M755.182 481.942V490.741L783.073 483.647V465.231L755.182 458.069V466.868L780.912 473.279V475.53L755.182 481.942Z" fill="#F2F2F2"/>
</g>
<g clip-path="url(#clip140_126_2575)">
<path d="M281.805 870.67V861.871L253.846 868.965V887.382L281.805 894.544V885.745L256.074 879.265V877.082L281.805 870.67Z" fill="#F2F2F2"/>
<path d="M287.262 885.745V894.544L315.153 887.45V869.033L287.262 861.871V870.67L312.992 877.082V879.333L287.262 885.745Z" fill="#F2F2F2"/>
</g>
<g clip-path="url(#clip141_126_2575)">
<path d="M281.805 756.078V747.279L253.846 754.372V772.789L281.805 779.951V771.152L256.074 764.672V762.489L281.805 756.078Z" fill="#F2F2F2"/>
<path d="M287.262 771.152V779.951L315.153 772.857V754.441L287.262 747.279V756.078L312.992 762.489V764.74L287.262 771.152Z" fill="#F2F2F2"/>
</g>
<g clip-path="url(#clip142_126_2575)">
<path d="M281.805 641.486V632.687L253.846 639.781V658.197L281.805 665.359V656.56L256.074 650.08V647.898L281.805 641.486Z" fill="#F2F2F2"/>
<path d="M287.262 656.56V665.359L315.153 658.266V639.849L287.262 632.687V641.486L312.992 647.898V650.149L287.262 656.56Z" fill="#F2F2F2"/>
</g>
<g clip-path="url(#clip143_126_2575)">
<path d="M281.805 526.892V518.093L253.846 525.187V543.604L281.805 550.766V541.967L256.074 535.487V533.304L281.805 526.892Z" fill="#F2F2F2"/>
<path d="M287.262 541.967V550.766L315.153 543.672V525.255L287.262 518.093V526.892L312.992 533.304V535.555L287.262 541.967Z" fill="#F2F2F2"/>
</g>
<g clip-path="url(#clip144_126_2575)">
<path d="M549.187 869.306V860.507L521.228 867.601V886.018L549.187 893.18V884.381L523.457 877.901V875.718L549.187 869.306Z" fill="#F2F2F2"/>
<path d="M554.644 884.381V893.18L582.536 886.086V867.669L554.644 860.507V869.306L580.375 875.718V877.969L554.644 884.381Z" fill="#F2F2F2"/>
</g>
<g clip-path="url(#clip145_126_2575)">
<path d="M549.187 754.713V745.914L521.228 753.008V771.425L549.187 778.587V769.788L523.457 763.308V761.125L549.187 754.713Z" fill="#F2F2F2"/>
<path d="M554.644 769.788V778.587L582.536 771.493V753.076L554.644 745.914V754.713L580.375 761.125V763.376L554.644 769.788Z" fill="#F2F2F2"/>
</g>
<g clip-path="url(#clip146_126_2575)">
<path d="M549.187 640.121V631.322L521.228 638.415V656.832L549.187 663.994V655.195L523.457 648.715V646.532L549.187 640.121Z" fill="#F2F2F2"/>
<path d="M554.644 655.195V663.994L582.536 656.9V638.484L554.644 631.322V640.121L580.375 646.532V648.783L554.644 655.195Z" fill="#F2F2F2"/>
</g>
<g clip-path="url(#clip147_126_2575)">
<path d="M549.187 525.529V516.73L521.228 523.824V542.24L549.187 549.402V540.603L523.457 534.123V531.941L549.187 525.529Z" fill="#F2F2F2"/>
<path d="M554.644 540.603V549.402L582.536 542.309V523.892L554.644 516.73V525.529L580.375 531.941V534.192L554.644 540.603Z" fill="#F2F2F2"/>
</g>
<g clip-path="url(#clip148_126_2575)">
<path d="M816.571 867.942V859.143L788.611 866.237V884.653L816.571 891.815V883.016L790.84 876.536V874.354L816.571 867.942Z" fill="#F2F2F2"/>
</g>
<g clip-path="url(#clip149_126_2575)">
<path d="M816.571 753.35V744.551L788.611 751.645V770.062L816.571 777.224V768.425L790.84 761.945V759.762L816.571 753.35Z" fill="#F2F2F2"/>
</g>
<g clip-path="url(#clip150_126_2575)">
<path d="M816.571 638.756V629.957L788.611 637.051V655.468L816.571 662.63V653.831L790.84 647.351V645.168L816.571 638.756Z" fill="#F2F2F2"/>
</g>
<g clip-path="url(#clip151_126_2575)">
<path d="M816.571 524.165V515.366L788.611 522.459V540.876L816.571 548.038V539.239L790.84 532.759V530.576L816.571 524.165Z" fill="#F2F2F2"/>
</g>
<g clip-path="url(#clip152_126_2575)">
<path d="M348.651 813.374V804.575L320.691 811.668V830.085L348.651 837.247V828.448L322.92 821.968V819.785L348.651 813.374Z" fill="#F2F2F2"/>
<path d="M354.107 828.448V837.247L381.999 830.153V811.737L354.107 804.575V813.374L379.838 819.785V822.036L354.107 828.448Z" fill="#F2F2F2"/>
</g>
<g clip-path="url(#clip153_126_2575)">
<path d="M348.651 698.782V689.983L320.691 697.077V715.493L348.651 722.655V713.856L322.92 707.376V705.194L348.651 698.782Z" fill="#F2F2F2"/>
<path d="M354.107 713.856V722.655L381.999 715.561V697.145L354.107 689.983V698.782L379.838 705.194V707.444L354.107 713.856Z" fill="#F2F2F2"/>
</g>
<g clip-path="url(#clip154_126_2575)">
<path d="M348.651 584.189V575.39L320.691 582.484V600.9L348.651 608.062V599.263L322.92 592.783V590.601L348.651 584.189Z" fill="#F2F2F2"/>
<path d="M354.107 599.263V608.062L381.999 600.969V582.552L354.107 575.39V584.189L379.838 590.601V592.852L354.107 599.263Z" fill="#F2F2F2"/>
</g>
<g clip-path="url(#clip155_126_2575)">
<path d="M348.651 469.596V460.797L320.691 467.891V486.308L348.651 493.47V484.671L322.92 478.191V476.008L348.651 469.596Z" fill="#F2F2F2"/>
<path d="M354.107 484.671V493.47L381.999 486.376V467.959L354.107 460.797V469.596L379.838 476.008V478.259L354.107 484.671Z" fill="#F2F2F2"/>
</g>
<g clip-path="url(#clip156_126_2575)">
<path d="M616.034 812.01V803.211L588.074 810.305V828.722L616.034 835.884V827.085L590.303 820.605V818.422L616.034 812.01Z" fill="#F2F2F2"/>
<path d="M621.49 827.085V835.884L649.382 828.79V810.373L621.49 803.211V812.01L647.221 818.422V820.673L621.49 827.085Z" fill="#F2F2F2"/>
</g>
<g clip-path="url(#clip157_126_2575)">
<path d="M616.034 697.418V688.618L588.074 695.712V714.129L616.034 721.291V712.492L590.303 706.012V703.829L616.034 697.418Z" fill="#F2F2F2"/>
<path d="M621.49 712.492V721.291L649.382 714.197V695.781L621.49 688.618V697.418L647.221 703.829V706.08L621.49 712.492Z" fill="#F2F2F2"/>
</g>
<g clip-path="url(#clip158_126_2575)">
<path d="M616.034 582.825V574.026L588.074 581.12V599.536L616.034 606.698V597.899L590.303 591.419V589.237L616.034 582.825Z" fill="#F2F2F2"/>
<path d="M621.49 597.899V606.698L649.382 599.604V581.188L621.49 574.026V582.825L647.221 589.237V591.487L621.49 597.899Z" fill="#F2F2F2"/>
</g>
<g clip-path="url(#clip159_126_2575)">
<path d="M616.034 468.232V459.433L588.074 466.527V484.943L616.034 492.105V483.306L590.303 476.826V474.644L616.034 468.232Z" fill="#F2F2F2"/>
<path d="M621.49 483.306V492.105L649.382 485.012V466.595L621.49 459.433V468.232L647.221 474.644V476.895L621.49 483.306Z" fill="#F2F2F2"/>
</g>
<g clip-path="url(#clip160_126_2575)">
<path d="M20.5036 411.306V402.507L48.4629 409.601V428.018L20.5036 435.18V426.381L46.2343 419.901V417.718L20.5036 411.306Z" fill="#F2F2F2"/>
<path d="M15.0469 426.381V435.18L-12.8449 428.086V409.669L15.0469 402.507V411.306L-10.6838 417.718V419.969L15.0469 426.381Z" fill="#F2F2F2"/>
</g>
<g clip-path="url(#clip161_126_2575)">
<path d="M20.5036 296.713V287.914L48.4629 295.008V313.425L20.5036 320.587V311.788L46.2343 305.308V303.125L20.5036 296.713Z" fill="#F2F2F2"/>
<path d="M15.0469 311.788V320.587L-12.8449 313.493V295.076L15.0469 287.914V296.713L-10.6838 303.125V305.376L15.0469 311.788Z" fill="#F2F2F2"/>
</g>
<g clip-path="url(#clip162_126_2575)">
<path d="M20.5036 182.121V173.322L48.4629 180.415V198.832L20.5036 205.994V197.195L46.2343 190.715V188.532L20.5036 182.121Z" fill="#F2F2F2"/>
<path d="M15.0469 197.195V205.994L-12.8449 198.9V180.484L15.0469 173.322V182.121L-10.6838 188.532V190.783L15.0469 197.195Z" fill="#F2F2F2"/>
</g>
<g clip-path="url(#clip163_126_2575)">
<path d="M20.5036 67.5289V58.7298L48.4629 65.8236V84.2403L20.5036 91.4023V82.6033L46.2343 76.1233V73.9406L20.5036 67.5289Z" fill="#F2F2F2"/>
<path d="M15.0469 82.6033V91.4023L-12.8449 84.3085V65.8918L15.0469 58.7298V67.5289L-10.6838 73.9406V76.1915L15.0469 82.6033Z" fill="#F2F2F2"/>
</g>
<g clip-path="url(#clip164_126_2575)">
<path d="M215.584 370.448V379.247L187.692 372.153V353.737L215.584 346.575V355.374L189.853 361.785V364.036L215.584 370.448Z" fill="#F2F2F2"/>
</g>
<g clip-path="url(#clip165_126_2575)">
<path d="M215.584 255.856V264.655L187.692 257.561V239.145L215.584 231.983V240.782L189.853 247.194V249.444L215.584 255.856Z" fill="#F2F2F2"/>
</g>
<g clip-path="url(#clip166_126_2575)">
<path d="M215.584 141.263V150.062L187.692 142.969V124.552L215.584 117.39V126.189L189.853 132.601V134.852L215.584 141.263Z" fill="#F2F2F2"/>
</g>
<g clip-path="url(#clip167_126_2575)">
<path d="M215.584 26.6707V35.4697L187.692 28.3759V9.95923L215.584 2.7972V11.5963L189.853 18.008V20.2589L215.584 26.6707Z" fill="#F2F2F2"/>
</g>
<g clip-path="url(#clip168_126_2575)">
<path d="M154.195 412.67V403.871L182.154 410.965V429.382L154.195 436.544V427.745L179.926 421.265V419.082L154.195 412.67Z" fill="#F2F2F2"/>
<path d="M148.738 427.745V436.544L120.847 429.45V411.033L148.738 403.871V412.67L123.008 419.082V421.333L148.738 427.745Z" fill="#F2F2F2"/>
</g>
<g clip-path="url(#clip169_126_2575)">
<path d="M154.195 298.078V289.279L182.154 296.372V314.789L154.195 321.951V313.152L179.926 306.672V304.489L154.195 298.078Z" fill="#F2F2F2"/>
<path d="M148.738 313.152V321.951L120.847 314.857V296.441L148.738 289.279V298.078L123.008 304.489V306.74L148.738 313.152Z" fill="#F2F2F2"/>
</g>
<g clip-path="url(#clip170_126_2575)">
<path d="M154.195 183.486V174.687L182.154 181.781V200.197L154.195 207.359V198.56L179.926 192.08V189.898L154.195 183.486Z" fill="#F2F2F2"/>
<path d="M148.738 198.56V207.359L120.847 200.266V181.849L148.738 174.687V183.486L123.008 189.898V192.149L148.738 198.56Z" fill="#F2F2F2"/>
</g>
<g clip-path="url(#clip171_126_2575)">
<path d="M154.195 68.8922V60.0931L182.154 67.1869V85.6036L154.195 92.7656V83.9666L179.926 77.4866V75.3039L154.195 68.8922Z" fill="#F2F2F2"/>
<path d="M148.738 83.9666V92.7656L120.847 85.6718V67.2551L148.738 60.0931V68.8922L123.008 75.3039V77.5548L148.738 83.9666Z" fill="#F2F2F2"/>
</g>
<g clip-path="url(#clip172_126_2575)">
<path d="M87.3493 355.374V346.575L115.309 353.668V372.085L87.3493 379.247V370.448L113.08 363.968V361.785L87.3493 355.374Z" fill="#F2F2F2"/>
<path d="M81.8926 370.448V379.247L54.0008 372.153V353.737L81.8926 346.575V355.374L56.1619 361.785V364.036L81.8926 370.448Z" fill="#F2F2F2"/>
</g>
<g clip-path="url(#clip173_126_2575)">
<path d="M87.3493 240.782V231.983L115.309 239.077V257.493L87.3493 264.655V255.856L113.08 249.376V247.194L87.3493 240.782Z" fill="#F2F2F2"/>
<path d="M81.8926 255.856V264.655L54.0008 257.561V239.145L81.8926 231.983V240.782L56.1619 247.194V249.444L81.8926 255.856Z" fill="#F2F2F2"/>
</g>
<g clip-path="url(#clip174_126_2575)">
<path d="M87.3493 126.189V117.39L115.309 124.484V142.9L87.3493 150.062V141.263L113.08 134.783V132.601L87.3493 126.189Z" fill="#F2F2F2"/>
<path d="M81.8926 141.263V150.062L54.0008 142.969V124.552L81.8926 117.39V126.189L56.1619 132.601V134.852L81.8926 141.263Z" fill="#F2F2F2"/>
</g>
<g clip-path="url(#clip175_126_2575)">
<path d="M87.3493 11.5963V2.7972L115.309 9.89102V28.3077L87.3493 35.4697V26.6707L113.08 20.1907V18.008L87.3493 11.5963Z" fill="#F2F2F2"/>
<path d="M81.8926 26.6707V35.4697L54.0008 28.3759V9.95923L81.8926 2.7972V11.5963L56.1619 18.008V20.2589L81.8926 26.6707Z" fill="#F2F2F2"/>
</g>
<g clip-path="url(#clip176_126_2575)">
<path d="M20.5036 869.306V860.507L48.4629 867.601V886.018L20.5036 893.18V884.381L46.2343 877.901V875.718L20.5036 869.306Z" fill="#F2F2F2"/>
<path d="M15.0469 884.381V893.18L-12.8449 886.086V867.669L15.0469 860.507V869.306L-10.6838 875.718V877.969L15.0469 884.381Z" fill="#F2F2F2"/>
</g>
<g clip-path="url(#clip177_126_2575)">
<path d="M20.5036 754.713V745.914L48.4629 753.008V771.425L20.5036 778.587V769.788L46.2343 763.308V761.125L20.5036 754.713Z" fill="#F2F2F2"/>
<path d="M15.0469 769.788V778.587L-12.8449 771.493V753.076L15.0469 745.914V754.713L-10.6838 761.125V763.376L15.0469 769.788Z" fill="#F2F2F2"/>
</g>
<g clip-path="url(#clip178_126_2575)">
<path d="M20.5036 640.121V631.322L48.4629 638.415V656.832L20.5036 663.994V655.195L46.2343 648.715V646.532L20.5036 640.121Z" fill="#F2F2F2"/>
<path d="M15.0469 655.195V663.994L-12.8449 656.9V638.484L15.0469 631.322V640.121L-10.6838 646.532V648.783L15.0469 655.195Z" fill="#F2F2F2"/>
</g>
<g clip-path="url(#clip179_126_2575)">
<path d="M20.5036 525.529V516.73L48.4629 523.824V542.24L20.5036 549.402V540.603L46.2343 534.123V531.941L20.5036 525.529Z" fill="#F2F2F2"/>
<path d="M15.0469 540.603V549.402L-12.8449 542.309V523.892L15.0469 516.73V525.529L-10.6838 531.941V534.192L15.0469 540.603Z" fill="#F2F2F2"/>
</g>
<g clip-path="url(#clip180_126_2575)">
<path d="M215.584 828.448V837.247L187.692 830.153V811.737L215.584 804.575V813.374L189.853 819.785V822.036L215.584 828.448Z" fill="#F2F2F2"/>
</g>
<g clip-path="url(#clip181_126_2575)">
<path d="M215.584 713.856V722.655L187.692 715.561V697.145L215.584 689.983V698.782L189.853 705.194V707.444L215.584 713.856Z" fill="#F2F2F2"/>
</g>
<g clip-path="url(#clip182_126_2575)">
<path d="M215.584 599.263V608.062L187.692 600.969V582.552L215.584 575.39V584.189L189.853 590.601V592.852L215.584 599.263Z" fill="#F2F2F2"/>
</g>
<g clip-path="url(#clip183_126_2575)">
<path d="M215.584 484.671V493.47L187.692 486.376V467.959L215.584 460.797V469.596L189.853 476.008V478.259L215.584 484.671Z" fill="#F2F2F2"/>
</g>
<g clip-path="url(#clip184_126_2575)">
<path d="M154.195 870.67V861.871L182.154 868.965V887.382L154.195 894.544V885.745L179.926 879.265V877.082L154.195 870.67Z" fill="#F2F2F2"/>
<path d="M148.738 885.745V894.544L120.847 887.45V869.033L148.738 861.871V870.67L123.008 877.082V879.333L148.738 885.745Z" fill="#F2F2F2"/>
</g>
<g clip-path="url(#clip185_126_2575)">
<path d="M154.195 756.078V747.279L182.154 754.372V772.789L154.195 779.951V771.152L179.926 764.672V762.489L154.195 756.078Z" fill="#F2F2F2"/>
<path d="M148.738 771.152V779.951L120.847 772.857V754.441L148.738 747.279V756.078L123.008 762.489V764.74L148.738 771.152Z" fill="#F2F2F2"/>
</g>
<g clip-path="url(#clip186_126_2575)">
<path d="M154.195 641.486V632.687L182.154 639.781V658.197L154.195 665.359V656.56L179.926 650.08V647.898L154.195 641.486Z" fill="#F2F2F2"/>
<path d="M148.738 656.56V665.359L120.847 658.266V639.849L148.738 632.687V641.486L123.008 647.898V650.149L148.738 656.56Z" fill="#F2F2F2"/>
</g>
<g clip-path="url(#clip187_126_2575)">
<path d="M154.195 526.892V518.093L182.154 525.187V543.604L154.195 550.766V541.967L179.926 535.487V533.304L154.195 526.892Z" fill="#F2F2F2"/>
<path d="M148.738 541.967V550.766L120.847 543.672V525.255L148.738 518.093V526.892L123.008 533.304V535.555L148.738 541.967Z" fill="#F2F2F2"/>
</g>
<g clip-path="url(#clip188_126_2575)">
<path d="M87.3493 813.374V804.575L115.309 811.668V830.085L87.3493 837.247V828.448L113.08 821.968V819.785L87.3493 813.374Z" fill="#F2F2F2"/>
<path d="M81.8926 828.448V837.247L54.0008 830.153V811.737L81.8926 804.575V813.374L56.1619 819.785V822.036L81.8926 828.448Z" fill="#F2F2F2"/>
</g>
<g clip-path="url(#clip189_126_2575)">
<path d="M87.3493 698.782V689.983L115.309 697.077V715.493L87.3493 722.655V713.856L113.08 707.376V705.194L87.3493 698.782Z" fill="#F2F2F2"/>
<path d="M81.8926 713.856V722.655L54.0008 715.561V697.145L81.8926 689.983V698.782L56.1619 705.194V707.444L81.8926 713.856Z" fill="#F2F2F2"/>
</g>
<g clip-path="url(#clip190_126_2575)">
<path d="M87.3493 584.189V575.39L115.309 582.484V600.9L87.3493 608.062V599.263L113.08 592.783V590.601L87.3493 584.189Z" fill="#F2F2F2"/>
<path d="M81.8926 599.263V608.062L54.0008 600.969V582.552L81.8926 575.39V584.189L56.1619 590.601V592.852L81.8926 599.263Z" fill="#F2F2F2"/>
</g>
<g clip-path="url(#clip191_126_2575)">
<path d="M87.3493 469.596V460.797L115.309 467.891V486.308L87.3493 493.47V484.671L113.08 478.191V476.008L87.3493 469.596Z" fill="#F2F2F2"/>
<path d="M81.8926 484.671V493.47L54.0008 486.376V467.959L81.8926 460.797V469.596L56.1619 476.008V478.259L81.8926 484.671Z" fill="#F2F2F2"/>
</g>
<defs>
<clipPath id="clip0_126_2575">
<rect width="61.3889" height="33.4228" fill="white" transform="translate(1250.46 435.861) rotate(-180)"/>
</clipPath>
<clipPath id="clip1_126_2575">
<rect width="61.3889" height="33.4228" fill="white" transform="translate(1250.46 321.269) rotate(-180)"/>
</clipPath>
<clipPath id="clip2_126_2575">
<rect width="61.3889" height="33.4228" fill="white" transform="translate(1250.46 206.676) rotate(-180)"/>
</clipPath>
<clipPath id="clip3_126_2575">
<rect width="61.3889" height="33.4228" fill="white" transform="translate(1250.46 92.084) rotate(-180)"/>
</clipPath>
<clipPath id="clip4_126_2575">
<rect width="61.3889" height="33.4228" fill="white" transform="translate(983.08 434.497) rotate(-180)"/>
</clipPath>
<clipPath id="clip5_126_2575">
<rect width="61.3889" height="33.4228" fill="white" transform="translate(983.08 319.905) rotate(-180)"/>
</clipPath>
<clipPath id="clip6_126_2575">
<rect width="61.3889" height="33.4228" fill="white" transform="translate(983.08 205.312) rotate(-180)"/>
</clipPath>
<clipPath id="clip7_126_2575">
<rect width="61.3889" height="33.4228" fill="white" transform="translate(983.08 90.7197) rotate(-180)"/>
</clipPath>
<clipPath id="clip8_126_2575">
<rect width="61.3889" height="33.4228" fill="white" transform="translate(1451 379.929) rotate(-180)"/>
</clipPath>
<clipPath id="clip9_126_2575">
<rect width="61.3889" height="33.4228" fill="white" transform="translate(1451 265.337) rotate(-180)"/>
</clipPath>
<clipPath id="clip10_126_2575">
<rect width="61.3889" height="33.4228" fill="white" transform="translate(1451 150.744) rotate(-180)"/>
</clipPath>
<clipPath id="clip11_126_2575">
<rect width="61.3889" height="33.4228" fill="white" transform="translate(1451 36.1514) rotate(-180)"/>
</clipPath>
<clipPath id="clip12_126_2575">
<rect width="61.3889" height="33.4228" fill="white" transform="translate(1183.62 378.565) rotate(-180)"/>
</clipPath>
<clipPath id="clip13_126_2575">
<rect width="61.3889" height="33.4228" fill="white" transform="translate(1183.62 263.973) rotate(-180)"/>
</clipPath>
<clipPath id="clip14_126_2575">
<rect width="61.3889" height="33.4228" fill="white" transform="translate(1183.62 149.38) rotate(-180)"/>
</clipPath>
<clipPath id="clip15_126_2575">
<rect width="61.3889" height="33.4228" fill="white" transform="translate(1183.62 34.7871) rotate(-180)"/>
</clipPath>
<clipPath id="clip16_126_2575">
<rect width="61.3889" height="33.4228" fill="white" transform="translate(916.234 377.201) rotate(-180)"/>
</clipPath>
<clipPath id="clip17_126_2575">
<rect width="61.3889" height="33.4228" fill="white" transform="translate(916.234 262.608) rotate(-180)"/>
</clipPath>
<clipPath id="clip18_126_2575">
<rect width="61.3889" height="33.4228" fill="white" transform="translate(916.234 148.016) rotate(-180)"/>
</clipPath>
<clipPath id="clip19_126_2575">
<rect width="61.3889" height="33.4228" fill="white" transform="translate(916.234 33.4229) rotate(-180)"/>
</clipPath>
<clipPath id="clip20_126_2575">
<rect width="61.3889" height="33.4228" fill="white" transform="translate(1384.15 437.226) rotate(-180)"/>
</clipPath>
<clipPath id="clip21_126_2575">
<rect width="61.3889" height="33.4228" fill="white" transform="translate(1384.15 322.633) rotate(-180)"/>
</clipPath>
<clipPath id="clip22_126_2575">
<rect width="61.3889" height="33.4228" fill="white" transform="translate(1384.15 208.041) rotate(-180)"/>
</clipPath>
<clipPath id="clip23_126_2575">
<rect width="61.3889" height="33.4228" fill="white" transform="translate(1384.15 93.4473) rotate(-180)"/>
</clipPath>
<clipPath id="clip24_126_2575">
<rect width="61.3889" height="33.4228" fill="white" transform="translate(1116.77 435.861) rotate(-180)"/>
</clipPath>
<clipPath id="clip25_126_2575">
<rect width="61.3889" height="33.4228" fill="white" transform="translate(1116.77 321.269) rotate(-180)"/>
</clipPath>
<clipPath id="clip26_126_2575">
<rect width="61.3889" height="33.4228" fill="white" transform="translate(1116.77 206.676) rotate(-180)"/>
</clipPath>
<clipPath id="clip27_126_2575">
<rect width="61.3889" height="33.4228" fill="white" transform="translate(1116.77 92.084) rotate(-180)"/>
</clipPath>
<clipPath id="clip28_126_2575">
<rect width="61.3889" height="33.4228" fill="white" transform="translate(849.389 434.497) rotate(-180)"/>
</clipPath>
<clipPath id="clip29_126_2575">
<rect width="61.3889" height="33.4228" fill="white" transform="translate(849.389 319.905) rotate(-180)"/>
</clipPath>
<clipPath id="clip30_126_2575">
<rect width="61.3889" height="33.4228" fill="white" transform="translate(849.389 205.312) rotate(-180)"/>
</clipPath>
<clipPath id="clip31_126_2575">
<rect width="61.3889" height="33.4228" fill="white" transform="translate(849.389 90.7197) rotate(-180)"/>
</clipPath>
<clipPath id="clip32_126_2575">
<rect width="61.3889" height="33.4228" fill="white" transform="translate(1317.31 379.929) rotate(-180)"/>
</clipPath>
<clipPath id="clip33_126_2575">
<rect width="61.3889" height="33.4228" fill="white" transform="translate(1317.31 265.337) rotate(-180)"/>
</clipPath>
<clipPath id="clip34_126_2575">
<rect width="61.3889" height="33.4228" fill="white" transform="translate(1317.31 150.744) rotate(-180)"/>
</clipPath>
<clipPath id="clip35_126_2575">
<rect width="61.3889" height="33.4228" fill="white" transform="translate(1317.31 36.1514) rotate(-180)"/>
</clipPath>
<clipPath id="clip36_126_2575">
<rect width="61.3889" height="33.4228" fill="white" transform="translate(1049.93 378.565) rotate(-180)"/>
</clipPath>
<clipPath id="clip37_126_2575">
<rect width="61.3889" height="33.4228" fill="white" transform="translate(1049.93 263.973) rotate(-180)"/>
</clipPath>
<clipPath id="clip38_126_2575">
<rect width="61.3889" height="33.4228" fill="white" transform="translate(1049.93 149.38) rotate(-180)"/>
</clipPath>
<clipPath id="clip39_126_2575">
<rect width="61.3889" height="33.4228" fill="white" transform="translate(1049.93 34.7871) rotate(-180)"/>
</clipPath>
<clipPath id="clip40_126_2575">
<rect width="61.3889" height="33.4228" fill="white" transform="matrix(1 0 0 -1 387.537 435.861)"/>
</clipPath>
<clipPath id="clip41_126_2575">
<rect width="61.3889" height="33.4228" fill="white" transform="matrix(1 0 0 -1 387.537 321.269)"/>
</clipPath>
<clipPath id="clip42_126_2575">
<rect width="61.3889" height="33.4228" fill="white" transform="matrix(1 0 0 -1 387.537 206.676)"/>
</clipPath>
<clipPath id="clip43_126_2575">
<rect width="61.3889" height="33.4228" fill="white" transform="matrix(1 0 0 -1 387.537 92.084)"/>
</clipPath>
<clipPath id="clip44_126_2575">
<rect width="61.3889" height="33.4228" fill="white" transform="matrix(1 0 0 -1 654.92 434.497)"/>
</clipPath>
<clipPath id="clip45_126_2575">
<rect width="61.3889" height="33.4228" fill="white" transform="matrix(1 0 0 -1 654.92 319.905)"/>
</clipPath>
<clipPath id="clip46_126_2575">
<rect width="61.3889" height="33.4228" fill="white" transform="matrix(1 0 0 -1 654.92 205.312)"/>
</clipPath>
<clipPath id="clip47_126_2575">
<rect width="61.3889" height="33.4228" fill="white" transform="matrix(1 0 0 -1 654.92 90.7197)"/>
</clipPath>
<clipPath id="clip48_126_2575">
<rect width="61.3889" height="33.4228" fill="white" transform="matrix(1 0 0 -1 187 379.929)"/>
</clipPath>
<clipPath id="clip49_126_2575">
<rect width="61.3889" height="33.4228" fill="white" transform="matrix(1 0 0 -1 187 265.337)"/>
</clipPath>
<clipPath id="clip50_126_2575">
<rect width="61.3889" height="33.4228" fill="white" transform="matrix(1 0 0 -1 187 150.744)"/>
</clipPath>
<clipPath id="clip51_126_2575">
<rect width="61.3889" height="33.4228" fill="white" transform="matrix(1 0 0 -1 187 36.1514)"/>
</clipPath>
<clipPath id="clip52_126_2575">
<rect width="61.3889" height="33.4228" fill="white" transform="matrix(1 0 0 -1 454.383 378.565)"/>
</clipPath>
<clipPath id="clip53_126_2575">
<rect width="61.3889" height="33.4228" fill="white" transform="matrix(1 0 0 -1 454.383 263.973)"/>
</clipPath>
<clipPath id="clip54_126_2575">
<rect width="61.3889" height="33.4228" fill="white" transform="matrix(1 0 0 -1 454.383 149.38)"/>
</clipPath>
<clipPath id="clip55_126_2575">
<rect width="61.3889" height="33.4228" fill="white" transform="matrix(1 0 0 -1 454.383 34.7871)"/>
</clipPath>
<clipPath id="clip56_126_2575">
<rect width="61.3889" height="33.4228" fill="white" transform="matrix(1 0 0 -1 721.766 377.201)"/>
</clipPath>
<clipPath id="clip57_126_2575">
<rect width="61.3889" height="33.4228" fill="white" transform="matrix(1 0 0 -1 721.766 262.608)"/>
</clipPath>
<clipPath id="clip58_126_2575">
<rect width="61.3889" height="33.4228" fill="white" transform="matrix(1 0 0 -1 721.766 148.016)"/>
</clipPath>
<clipPath id="clip59_126_2575">
<rect width="61.3889" height="33.4228" fill="white" transform="matrix(1 0 0 -1 721.766 33.4229)"/>
</clipPath>
<clipPath id="clip60_126_2575">
<rect width="61.3889" height="33.4228" fill="white" transform="matrix(1 0 0 -1 253.846 437.226)"/>
</clipPath>
<clipPath id="clip61_126_2575">
<rect width="61.3889" height="33.4228" fill="white" transform="matrix(1 0 0 -1 253.846 322.633)"/>
</clipPath>
<clipPath id="clip62_126_2575">
<rect width="61.3889" height="33.4228" fill="white" transform="matrix(1 0 0 -1 253.846 208.041)"/>
</clipPath>
<clipPath id="clip63_126_2575">
<rect width="61.3889" height="33.4228" fill="white" transform="matrix(1 0 0 -1 253.846 93.4473)"/>
</clipPath>
<clipPath id="clip64_126_2575">
<rect width="61.3889" height="33.4228" fill="white" transform="matrix(1 0 0 -1 521.228 435.861)"/>
</clipPath>
<clipPath id="clip65_126_2575">
<rect width="61.3889" height="33.4228" fill="white" transform="matrix(1 0 0 -1 521.228 321.269)"/>
</clipPath>
<clipPath id="clip66_126_2575">
<rect width="61.3889" height="33.4228" fill="white" transform="matrix(1 0 0 -1 521.228 206.676)"/>
</clipPath>
<clipPath id="clip67_126_2575">
<rect width="61.3889" height="33.4228" fill="white" transform="matrix(1 0 0 -1 521.228 92.084)"/>
</clipPath>
<clipPath id="clip68_126_2575">
<rect width="61.3889" height="33.4228" fill="white" transform="matrix(1 0 0 -1 788.611 434.497)"/>
</clipPath>
<clipPath id="clip69_126_2575">
<rect width="61.3889" height="33.4228" fill="white" transform="matrix(1 0 0 -1 788.611 319.905)"/>
</clipPath>
<clipPath id="clip70_126_2575">
<rect width="61.3889" height="33.4228" fill="white" transform="matrix(1 0 0 -1 788.611 205.312)"/>
</clipPath>
<clipPath id="clip71_126_2575">
<rect width="61.3889" height="33.4228" fill="white" transform="matrix(1 0 0 -1 788.611 90.7197)"/>
</clipPath>
<clipPath id="clip72_126_2575">
<rect width="61.3889" height="33.4228" fill="white" transform="matrix(1 0 0 -1 320.691 379.929)"/>
</clipPath>
<clipPath id="clip73_126_2575">
<rect width="61.3889" height="33.4228" fill="white" transform="matrix(1 0 0 -1 320.691 265.337)"/>
</clipPath>
<clipPath id="clip74_126_2575">
<rect width="61.3889" height="33.4228" fill="white" transform="matrix(1 0 0 -1 320.691 150.744)"/>
</clipPath>
<clipPath id="clip75_126_2575">
<rect width="61.3889" height="33.4228" fill="white" transform="matrix(1 0 0 -1 320.691 36.1514)"/>
</clipPath>
<clipPath id="clip76_126_2575">
<rect width="61.3889" height="33.4228" fill="white" transform="matrix(1 0 0 -1 588.074 378.565)"/>
</clipPath>
<clipPath id="clip77_126_2575">
<rect width="61.3889" height="33.4228" fill="white" transform="matrix(1 0 0 -1 588.074 263.973)"/>
</clipPath>
<clipPath id="clip78_126_2575">
<rect width="61.3889" height="33.4228" fill="white" transform="matrix(1 0 0 -1 588.074 149.38)"/>
</clipPath>
<clipPath id="clip79_126_2575">
<rect width="61.3889" height="33.4228" fill="white" transform="matrix(1 0 0 -1 588.074 34.7871)"/>
</clipPath>
<clipPath id="clip80_126_2575">
<rect width="61.3889" height="33.4228" fill="white" transform="translate(1250.46 893.861) rotate(-180)"/>
</clipPath>
<clipPath id="clip81_126_2575">
<rect width="61.3889" height="33.4228" fill="white" transform="translate(1250.46 779.269) rotate(-180)"/>
</clipPath>
<clipPath id="clip82_126_2575">
<rect width="61.3889" height="33.4228" fill="white" transform="translate(1250.46 664.676) rotate(-180)"/>
</clipPath>
<clipPath id="clip83_126_2575">
<rect width="61.3889" height="33.4228" fill="white" transform="translate(1250.46 550.084) rotate(-180)"/>
</clipPath>
<clipPath id="clip84_126_2575">
<rect width="61.3889" height="33.4228" fill="white" transform="translate(983.08 892.497) rotate(-180)"/>
</clipPath>
<clipPath id="clip85_126_2575">
<rect width="61.3889" height="33.4228" fill="white" transform="translate(983.08 777.905) rotate(-180)"/>
</clipPath>
<clipPath id="clip86_126_2575">
<rect width="61.3889" height="33.4228" fill="white" transform="translate(983.08 663.312) rotate(-180)"/>
</clipPath>
<clipPath id="clip87_126_2575">
<rect width="61.3889" height="33.4228" fill="white" transform="translate(983.08 548.72) rotate(-180)"/>
</clipPath>
<clipPath id="clip88_126_2575">
<rect width="61.3889" height="33.4228" fill="white" transform="translate(1451 837.929) rotate(-180)"/>
</clipPath>
<clipPath id="clip89_126_2575">
<rect width="61.3889" height="33.4228" fill="white" transform="translate(1451 723.337) rotate(-180)"/>
</clipPath>
<clipPath id="clip90_126_2575">
<rect width="61.3889" height="33.4228" fill="white" transform="translate(1451 608.744) rotate(-180)"/>
</clipPath>
<clipPath id="clip91_126_2575">
<rect width="61.3889" height="33.4228" fill="white" transform="translate(1451 494.151) rotate(-180)"/>
</clipPath>
<clipPath id="clip92_126_2575">
<rect width="61.3889" height="33.4228" fill="white" transform="translate(1183.62 836.565) rotate(-180)"/>
</clipPath>
<clipPath id="clip93_126_2575">
<rect width="61.3889" height="33.4228" fill="white" transform="translate(1183.62 721.973) rotate(-180)"/>
</clipPath>
<clipPath id="clip94_126_2575">
<rect width="61.3889" height="33.4228" fill="white" transform="translate(1183.62 607.38) rotate(-180)"/>
</clipPath>
<clipPath id="clip95_126_2575">
<rect width="61.3889" height="33.4228" fill="white" transform="translate(1183.62 492.787) rotate(-180)"/>
</clipPath>
<clipPath id="clip96_126_2575">
<rect width="61.3889" height="33.4228" fill="white" transform="translate(916.234 835.201) rotate(-180)"/>
</clipPath>
<clipPath id="clip97_126_2575">
<rect width="61.3889" height="33.4228" fill="white" transform="translate(916.234 720.608) rotate(-180)"/>
</clipPath>
<clipPath id="clip98_126_2575">
<rect width="61.3889" height="33.4228" fill="white" transform="translate(916.234 606.016) rotate(-180)"/>
</clipPath>
<clipPath id="clip99_126_2575">
<rect width="61.3889" height="33.4228" fill="white" transform="translate(916.234 491.423) rotate(-180)"/>
</clipPath>
<clipPath id="clip100_126_2575">
<rect width="61.3889" height="33.4228" fill="white" transform="translate(1384.15 895.226) rotate(-180)"/>
</clipPath>
<clipPath id="clip101_126_2575">
<rect width="61.3889" height="33.4228" fill="white" transform="translate(1384.15 780.633) rotate(-180)"/>
</clipPath>
<clipPath id="clip102_126_2575">
<rect width="61.3889" height="33.4228" fill="white" transform="translate(1384.15 666.041) rotate(-180)"/>
</clipPath>
<clipPath id="clip103_126_2575">
<rect width="61.3889" height="33.4228" fill="white" transform="translate(1384.15 551.447) rotate(-180)"/>
</clipPath>
<clipPath id="clip104_126_2575">
<rect width="61.3889" height="33.4228" fill="white" transform="translate(1116.77 893.861) rotate(-180)"/>
</clipPath>
<clipPath id="clip105_126_2575">
<rect width="61.3889" height="33.4228" fill="white" transform="translate(1116.77 779.269) rotate(-180)"/>
</clipPath>
<clipPath id="clip106_126_2575">
<rect width="61.3889" height="33.4228" fill="white" transform="translate(1116.77 664.676) rotate(-180)"/>
</clipPath>
<clipPath id="clip107_126_2575">
<rect width="61.3889" height="33.4228" fill="white" transform="translate(1116.77 550.084) rotate(-180)"/>
</clipPath>
<clipPath id="clip108_126_2575">
<rect width="61.3889" height="33.4228" fill="white" transform="translate(849.389 892.497) rotate(-180)"/>
</clipPath>
<clipPath id="clip109_126_2575">
<rect width="61.3889" height="33.4228" fill="white" transform="translate(849.389 777.905) rotate(-180)"/>
</clipPath>
<clipPath id="clip110_126_2575">
<rect width="61.3889" height="33.4228" fill="white" transform="translate(849.389 663.312) rotate(-180)"/>
</clipPath>
<clipPath id="clip111_126_2575">
<rect width="61.3889" height="33.4228" fill="white" transform="translate(849.389 548.72) rotate(-180)"/>
</clipPath>
<clipPath id="clip112_126_2575">
<rect width="61.3889" height="33.4228" fill="white" transform="translate(1317.31 837.929) rotate(-180)"/>
</clipPath>
<clipPath id="clip113_126_2575">
<rect width="61.3889" height="33.4228" fill="white" transform="translate(1317.31 723.337) rotate(-180)"/>
</clipPath>
<clipPath id="clip114_126_2575">
<rect width="61.3889" height="33.4228" fill="white" transform="translate(1317.31 608.744) rotate(-180)"/>
</clipPath>
<clipPath id="clip115_126_2575">
<rect width="61.3889" height="33.4228" fill="white" transform="translate(1317.31 494.151) rotate(-180)"/>
</clipPath>
<clipPath id="clip116_126_2575">
<rect width="61.3889" height="33.4228" fill="white" transform="translate(1049.93 836.565) rotate(-180)"/>
</clipPath>
<clipPath id="clip117_126_2575">
<rect width="61.3889" height="33.4228" fill="white" transform="translate(1049.93 721.973) rotate(-180)"/>
</clipPath>
<clipPath id="clip118_126_2575">
<rect width="61.3889" height="33.4228" fill="white" transform="translate(1049.93 607.38) rotate(-180)"/>
</clipPath>
<clipPath id="clip119_126_2575">
<rect width="61.3889" height="33.4228" fill="white" transform="translate(1049.93 492.787) rotate(-180)"/>
</clipPath>
<clipPath id="clip120_126_2575">
<rect width="61.3889" height="33.4228" fill="white" transform="matrix(1 0 0 -1 387.537 893.861)"/>
</clipPath>
<clipPath id="clip121_126_2575">
<rect width="61.3889" height="33.4228" fill="white" transform="matrix(1 0 0 -1 387.537 779.269)"/>
</clipPath>
<clipPath id="clip122_126_2575">
<rect width="61.3889" height="33.4228" fill="white" transform="matrix(1 0 0 -1 387.537 664.676)"/>
</clipPath>
<clipPath id="clip123_126_2575">
<rect width="61.3889" height="33.4228" fill="white" transform="matrix(1 0 0 -1 387.537 550.084)"/>
</clipPath>
<clipPath id="clip124_126_2575">
<rect width="61.3889" height="33.4228" fill="white" transform="matrix(1 0 0 -1 654.92 892.497)"/>
</clipPath>
<clipPath id="clip125_126_2575">
<rect width="61.3889" height="33.4228" fill="white" transform="matrix(1 0 0 -1 654.92 777.905)"/>
</clipPath>
<clipPath id="clip126_126_2575">
<rect width="61.3889" height="33.4228" fill="white" transform="matrix(1 0 0 -1 654.92 663.312)"/>
</clipPath>
<clipPath id="clip127_126_2575">
<rect width="61.3889" height="33.4228" fill="white" transform="matrix(1 0 0 -1 654.92 548.72)"/>
</clipPath>
<clipPath id="clip128_126_2575">
<rect width="61.3889" height="33.4228" fill="white" transform="matrix(1 0 0 -1 187 837.929)"/>
</clipPath>
<clipPath id="clip129_126_2575">
<rect width="61.3889" height="33.4228" fill="white" transform="matrix(1 0 0 -1 187 723.337)"/>
</clipPath>
<clipPath id="clip130_126_2575">
<rect width="61.3889" height="33.4228" fill="white" transform="matrix(1 0 0 -1 187 608.744)"/>
</clipPath>
<clipPath id="clip131_126_2575">
<rect width="61.3889" height="33.4228" fill="white" transform="matrix(1 0 0 -1 187 494.151)"/>
</clipPath>
<clipPath id="clip132_126_2575">
<rect width="61.3889" height="33.4228" fill="white" transform="matrix(1 0 0 -1 454.383 836.565)"/>
</clipPath>
<clipPath id="clip133_126_2575">
<rect width="61.3889" height="33.4228" fill="white" transform="matrix(1 0 0 -1 454.383 721.973)"/>
</clipPath>
<clipPath id="clip134_126_2575">
<rect width="61.3889" height="33.4228" fill="white" transform="matrix(1 0 0 -1 454.383 607.38)"/>
</clipPath>
<clipPath id="clip135_126_2575">
<rect width="61.3889" height="33.4228" fill="white" transform="matrix(1 0 0 -1 454.383 492.787)"/>
</clipPath>
<clipPath id="clip136_126_2575">
<rect width="61.3889" height="33.4228" fill="white" transform="matrix(1 0 0 -1 721.766 835.201)"/>
</clipPath>
<clipPath id="clip137_126_2575">
<rect width="61.3889" height="33.4228" fill="white" transform="matrix(1 0 0 -1 721.766 720.608)"/>
</clipPath>
<clipPath id="clip138_126_2575">
<rect width="61.3889" height="33.4228" fill="white" transform="matrix(1 0 0 -1 721.766 606.016)"/>
</clipPath>
<clipPath id="clip139_126_2575">
<rect width="61.3889" height="33.4228" fill="white" transform="matrix(1 0 0 -1 721.766 491.423)"/>
</clipPath>
<clipPath id="clip140_126_2575">
<rect width="61.3889" height="33.4228" fill="white" transform="matrix(1 0 0 -1 253.846 895.226)"/>
</clipPath>
<clipPath id="clip141_126_2575">
<rect width="61.3889" height="33.4228" fill="white" transform="matrix(1 0 0 -1 253.846 780.633)"/>
</clipPath>
<clipPath id="clip142_126_2575">
<rect width="61.3889" height="33.4228" fill="white" transform="matrix(1 0 0 -1 253.846 666.041)"/>
</clipPath>
<clipPath id="clip143_126_2575">
<rect width="61.3889" height="33.4228" fill="white" transform="matrix(1 0 0 -1 253.846 551.447)"/>
</clipPath>
<clipPath id="clip144_126_2575">
<rect width="61.3889" height="33.4228" fill="white" transform="matrix(1 0 0 -1 521.228 893.861)"/>
</clipPath>
<clipPath id="clip145_126_2575">
<rect width="61.3889" height="33.4228" fill="white" transform="matrix(1 0 0 -1 521.228 779.269)"/>
</clipPath>
<clipPath id="clip146_126_2575">
<rect width="61.3889" height="33.4228" fill="white" transform="matrix(1 0 0 -1 521.228 664.676)"/>
</clipPath>
<clipPath id="clip147_126_2575">
<rect width="61.3889" height="33.4228" fill="white" transform="matrix(1 0 0 -1 521.228 550.084)"/>
</clipPath>
<clipPath id="clip148_126_2575">
<rect width="61.3889" height="33.4228" fill="white" transform="matrix(1 0 0 -1 788.611 892.497)"/>
</clipPath>
<clipPath id="clip149_126_2575">
<rect width="61.3889" height="33.4228" fill="white" transform="matrix(1 0 0 -1 788.611 777.905)"/>
</clipPath>
<clipPath id="clip150_126_2575">
<rect width="61.3889" height="33.4228" fill="white" transform="matrix(1 0 0 -1 788.611 663.312)"/>
</clipPath>
<clipPath id="clip151_126_2575">
<rect width="61.3889" height="33.4228" fill="white" transform="matrix(1 0 0 -1 788.611 548.72)"/>
</clipPath>
<clipPath id="clip152_126_2575">
<rect width="61.3889" height="33.4228" fill="white" transform="matrix(1 0 0 -1 320.691 837.929)"/>
</clipPath>
<clipPath id="clip153_126_2575">
<rect width="61.3889" height="33.4228" fill="white" transform="matrix(1 0 0 -1 320.691 723.337)"/>
</clipPath>
<clipPath id="clip154_126_2575">
<rect width="61.3889" height="33.4228" fill="white" transform="matrix(1 0 0 -1 320.691 608.744)"/>
</clipPath>
<clipPath id="clip155_126_2575">
<rect width="61.3889" height="33.4228" fill="white" transform="matrix(1 0 0 -1 320.691 494.151)"/>
</clipPath>
<clipPath id="clip156_126_2575">
<rect width="61.3889" height="33.4228" fill="white" transform="matrix(1 0 0 -1 588.074 836.565)"/>
</clipPath>
<clipPath id="clip157_126_2575">
<rect width="61.3889" height="33.4228" fill="white" transform="matrix(1 0 0 -1 588.074 721.973)"/>
</clipPath>
<clipPath id="clip158_126_2575">
<rect width="61.3889" height="33.4228" fill="white" transform="matrix(1 0 0 -1 588.074 607.38)"/>
</clipPath>
<clipPath id="clip159_126_2575">
<rect width="61.3889" height="33.4228" fill="white" transform="matrix(1 0 0 -1 588.074 492.787)"/>
</clipPath>
<clipPath id="clip160_126_2575">
<rect width="61.3889" height="33.4228" fill="white" transform="translate(48.4629 435.861) rotate(-180)"/>
</clipPath>
<clipPath id="clip161_126_2575">
<rect width="61.3889" height="33.4228" fill="white" transform="translate(48.4629 321.269) rotate(-180)"/>
</clipPath>
<clipPath id="clip162_126_2575">
<rect width="61.3889" height="33.4228" fill="white" transform="translate(48.4629 206.676) rotate(-180)"/>
</clipPath>
<clipPath id="clip163_126_2575">
<rect width="61.3889" height="33.4228" fill="white" transform="translate(48.4629 92.084) rotate(-180)"/>
</clipPath>
<clipPath id="clip164_126_2575">
<rect width="61.3889" height="33.4228" fill="white" transform="translate(249 379.929) rotate(-180)"/>
</clipPath>
<clipPath id="clip165_126_2575">
<rect width="61.3889" height="33.4228" fill="white" transform="translate(249 265.337) rotate(-180)"/>
</clipPath>
<clipPath id="clip166_126_2575">
<rect width="61.3889" height="33.4228" fill="white" transform="translate(249 150.744) rotate(-180)"/>
</clipPath>
<clipPath id="clip167_126_2575">
<rect width="61.3889" height="33.4228" fill="white" transform="translate(249 36.1514) rotate(-180)"/>
</clipPath>
<clipPath id="clip168_126_2575">
<rect width="61.3889" height="33.4228" fill="white" transform="translate(182.154 437.226) rotate(-180)"/>
</clipPath>
<clipPath id="clip169_126_2575">
<rect width="61.3889" height="33.4228" fill="white" transform="translate(182.154 322.633) rotate(-180)"/>
</clipPath>
<clipPath id="clip170_126_2575">
<rect width="61.3889" height="33.4228" fill="white" transform="translate(182.154 208.041) rotate(-180)"/>
</clipPath>
<clipPath id="clip171_126_2575">
<rect width="61.3889" height="33.4228" fill="white" transform="translate(182.154 93.4473) rotate(-180)"/>
</clipPath>
<clipPath id="clip172_126_2575">
<rect width="61.3889" height="33.4228" fill="white" transform="translate(115.309 379.929) rotate(-180)"/>
</clipPath>
<clipPath id="clip173_126_2575">
<rect width="61.3889" height="33.4228" fill="white" transform="translate(115.309 265.337) rotate(-180)"/>
</clipPath>
<clipPath id="clip174_126_2575">
<rect width="61.3889" height="33.4228" fill="white" transform="translate(115.309 150.744) rotate(-180)"/>
</clipPath>
<clipPath id="clip175_126_2575">
<rect width="61.3889" height="33.4228" fill="white" transform="translate(115.309 36.1514) rotate(-180)"/>
</clipPath>
<clipPath id="clip176_126_2575">
<rect width="61.3889" height="33.4228" fill="white" transform="translate(48.4629 893.861) rotate(-180)"/>
</clipPath>
<clipPath id="clip177_126_2575">
<rect width="61.3889" height="33.4228" fill="white" transform="translate(48.4629 779.269) rotate(-180)"/>
</clipPath>
<clipPath id="clip178_126_2575">
<rect width="61.3889" height="33.4228" fill="white" transform="translate(48.4629 664.676) rotate(-180)"/>
</clipPath>
<clipPath id="clip179_126_2575">
<rect width="61.3889" height="33.4228" fill="white" transform="translate(48.4629 550.084) rotate(-180)"/>
</clipPath>
<clipPath id="clip180_126_2575">
<rect width="61.3889" height="33.4228" fill="white" transform="translate(249 837.929) rotate(-180)"/>
</clipPath>
<clipPath id="clip181_126_2575">
<rect width="61.3889" height="33.4228" fill="white" transform="translate(249 723.337) rotate(-180)"/>
</clipPath>
<clipPath id="clip182_126_2575">
<rect width="61.3889" height="33.4228" fill="white" transform="translate(249 608.744) rotate(-180)"/>
</clipPath>
<clipPath id="clip183_126_2575">
<rect width="61.3889" height="33.4228" fill="white" transform="translate(249 494.151) rotate(-180)"/>
</clipPath>
<clipPath id="clip184_126_2575">
<rect width="61.3889" height="33.4228" fill="white" transform="translate(182.154 895.226) rotate(-180)"/>
</clipPath>
<clipPath id="clip185_126_2575">
<rect width="61.3889" height="33.4228" fill="white" transform="translate(182.154 780.633) rotate(-180)"/>
</clipPath>
<clipPath id="clip186_126_2575">
<rect width="61.3889" height="33.4228" fill="white" transform="translate(182.154 666.041) rotate(-180)"/>
</clipPath>
<clipPath id="clip187_126_2575">
<rect width="61.3889" height="33.4228" fill="white" transform="translate(182.154 551.447) rotate(-180)"/>
</clipPath>
<clipPath id="clip188_126_2575">
<rect width="61.3889" height="33.4228" fill="white" transform="translate(115.309 837.929) rotate(-180)"/>
</clipPath>
<clipPath id="clip189_126_2575">
<rect width="61.3889" height="33.4228" fill="white" transform="translate(115.309 723.337) rotate(-180)"/>
</clipPath>
<clipPath id="clip190_126_2575">
<rect width="61.3889" height="33.4228" fill="white" transform="translate(115.309 608.744) rotate(-180)"/>
</clipPath>
<clipPath id="clip191_126_2575">
<rect width="61.3889" height="33.4228" fill="white" transform="translate(115.309 494.151) rotate(-180)"/>
</clipPath>
</defs>
</svg>
